<svg id="Layer_1" xmlns="http://www.w3.org/2000/svg" viewBox="14355 -17.2 60 60"><style>.st0{fill:#fff}.st1{fill:none;stroke:#fff;stroke-width:2.5;stroke-miterlimit:10}</style><path class="st0" d="M14385.6 41.7l-25-14.5V-1.7l25-14.4 25.1 14.4v28.9l-25.1 14.5zm-22.6-15.9l22.5 13.1 22.6-13.1V-.3l-22.6-13-22.5 13v26.1z"/><path transform="rotate(29.955 14390.807 15.792)" class="st0" d="M14384.7 14.8h13.6v2.5h-13.6z"/><path transform="rotate(29.955 14367.841 2.316)" class="st0" d="M14360.9 1.1h13.6v2.5h-13.6z"/><path transform="rotate(30 14386.707 -1.374)" class="st0" d="M14371.9-2.3h27.6V.2h-27.6z"/><path transform="rotate(29.9 14372.613 19.468)" class="st0" d="M14359.8 18.2h27.7v2.5h-27.7z"/><path transform="rotate(59.689 14403.484 2.491)" class="st0" d="M14402.3-4.4h2.5V9.3h-2.5z"/><path transform="rotate(60.053 14378.834 15.863)" class="st0" d="M14378.5 9.4h2.5V23h-2.5z"/><path transform="rotate(59.681 14397.47 19.256)" class="st0" d="M14396.2 5.8h2.5v27.3h-2.5z"/><path transform="rotate(60.279 14384.988 -.87)" class="st0" d="M14384.3-14.8h2.5v27.6h-2.5z"/><path class="st0" d="M14384.3 25.5h2.5v14.8h-2.5zm0-26.5h2.5v13.7h-2.5zm12 6.9h2.5v27.5h-2.5zm-24 0h2.5v27.5h-2.5z"/></svg>