<svg id="Layer_1" xmlns="http://www.w3.org/2000/svg" viewBox="14355 -15 60 60"><style>.st0{fill:#fff}</style><path class="st0" d="M14372.4 1.8c-4.4 0-8-3.6-8-8s3.6-8 8-8 8 3.6 8 8-3.6 8-8 8zm0-13.5c-3 0-5.5 2.4-5.5 5.5s2.4 5.5 5.5 5.5c3 0 5.5-2.4 5.5-5.5s-2.5-5.5-5.5-5.5zM14408.1 23.3c-4.6 0-8.3-3.7-8.3-8.3 0-4.6 3.7-8.4 8.3-8.4 4.6 0 8.4 3.7 8.4 8.4 0 4.6-3.8 8.3-8.4 8.3zm0-14.2c-3.2 0-5.8 2.6-5.8 5.9s2.6 5.8 5.8 5.8 5.9-2.6 5.9-5.8-2.7-5.9-5.9-5.9zM14362.7 35.2c-4.6 0-8.3-3.7-8.3-8.4s3.7-8.4 8.3-8.4 8.4 3.7 8.4 8.4-3.8 8.4-8.4 8.4zm0-14.3c-3.2 0-5.8 2.6-5.8 5.9s2.6 5.9 5.8 5.9 5.9-2.6 5.9-5.9-2.7-5.9-5.9-5.9zM14382.9 21.3c-3.8 0-6.9-3.1-6.9-6.8s3.1-6.9 6.9-6.9c3.8 0 6.8 3.1 6.8 6.9s-3 6.8-6.8 6.8zm0-11.2c-2.4 0-4.4 2-4.4 4.4s2 4.3 4.4 4.3 4.3-2 4.3-4.3-1.9-4.4-4.3-4.4zM14360.1 13.8c-2.7 0-4.9-2.2-4.9-4.9s2.2-4.9 4.9-4.9 4.9 2.2 4.9 4.9-2.2 4.9-4.9 4.9zm0-7.8c-1.6 0-2.9 1.3-2.9 2.9s1.3 2.9 2.9 2.9c1.6 0 2.9-1.3 2.9-2.9s-1.3-2.9-2.9-2.9zM14400.5 2.6c-2.7 0-4.9-2.2-4.9-4.9s2.2-4.9 4.9-4.9 4.9 2.2 4.9 4.9-2.2 4.9-4.9 4.9zm0-7.8c-1.6 0-2.9 1.3-2.9 2.9s1.3 2.9 2.9 2.9 2.9-1.3 2.9-2.9-1.3-2.9-2.9-2.9zM14389.4 42.7c-2.7 0-4.9-2.2-4.9-4.9s2.2-4.9 4.9-4.9 4.9 2.2 4.9 4.9-2.2 4.9-4.9 4.9zm0-7.8c-1.6 0-2.9 1.3-2.9 2.9s1.3 2.9 2.9 2.9c1.6 0 2.9-1.3 2.9-2.9s-1.3-2.9-2.9-2.9z"/><path transform="rotate(61.001 14377.47 4.534)" class="st0" d="M14372.4 3.8h10.5v2.5h-10.5z"/><path transform="rotate(50.342 14391.144 5.596)" class="st0" d="M14390.8-1.6h2.5v14.4h-2.5z"/><path transform="rotate(72.692 14386.48 27.15)" class="st0" d="M14378.6 25.7h14.5v2.5h-14.5z"/><path transform="rotate(59.409 14373.376 19.653)" class="st0" d="M14372 14.5h2.5v10.8h-2.5z"/><path transform="rotate(13.928 14371.32 13.395)" class="st0" d="M14363.8 10.6h13.7v2.5h-13.7z"/><path transform="scale(.99995) rotate(86.326 14395.427 15.421)" class="st0" d="M14393.5 9.1h2.5v12.5h-2.5z"/></svg>