<svg id="Layer_1" xmlns="http://www.w3.org/2000/svg" width="86.661" height="117.562" viewBox="0 0 86.661 117.562"><g fill="#F2385A"><path d="M86.204 73.501c-5.347-14.833-12.35-25.791-12.229-38.095.39-39.972-51.419-41.218-68.612-27.563-6.994 5.554-5.734 29.655-4.025 58.477.902 15.218 1.352 31.15 3.571 46.234 15 3.215 30.093 5.353 45.458 4.962 5.692-.146 11.398.751 15.23-3.961 1.228-1.509 3.443-17.218 3.4-17.219-12.039-.562-23.763-5.108-30.772-12.033 7.755 2.693 22.823 7.302 31.791 3.9l.481-.234c.474-2.264.971-3.638 1.832-4.849 4.285-6.027 16.873-1.299 13.875-9.619zm-18.659-42.18c-.187.484-.262.976-.331 1.451-.037.235-.071.472-.122.703-.083.374-.153.752-.223 1.131-.165.883-.318 1.718-.631 2.467-1.14 2.712-3.364 4.191-6.609 4.397-.507.032-1.017.055-1.524.077-1.735.078-3.533.157-5.332.642-.451.121-.92.18-1.438.18-1.225 0-2.539-.342-3.779-.693l-.319-.09-.279.179c-1.898 1.219-3.606 1.93-5.375 2.236a12.22 12.22 0 0 1-2.104.172c-.816 0-1.688-.067-2.745-.211a5.339 5.339 0 0 0-.711-.048c-.53 0-1.014.079-1.437.235-1.218.45-2.395.678-3.496.678-2.21 0-4.181-.885-6.022-2.705-.318-.314-.7-.58-1.102-.767-.305-.141-.618-.26-.934-.379-.424-.16-.824-.312-1.177-.514-.38-.218-.746-.528-1.134-.855a24.27 24.27 0 0 0-.607-.5l-.307-.242-.373.119a6.693 6.693 0 0 1-2.052.336c-1.116 0-2.207-.317-3.243-.94-.417-.251-.899-.277-1.286-.297l-.118-.007c-1.689-.103-3.634-.291-5.33-1.229-2.531-1.402-3.657-3.633-3.441-6.821.046-.691.221-1.385.406-2.12.117-.467.239-.95.328-1.443.1-.552.194-1.273.052-1.952-.626-2.972.284-5.358 2.707-7.096.353-.252.846-.65 1.064-1.197 1.006-2.501 2.834-4.051 5.59-4.733a1.56 1.56 0 0 0 .289-.107l.146-.069.155-.146c.195-.23.38-.466.564-.701.379-.482.737-.938 1.148-1.309 1.275-1.152 2.876-1.767 4.896-1.884.672-.04 1.396-.16 2.121-.776 2.229-1.887 4.706-2.843 7.364-2.843 1.461 0 3.017.286 4.622.853.328.115.649.254.989.399l.806.338.277-.11c.992-.396 1.942-.596 2.825-.596 1.332 0 2.531.438 3.664 1.337l.239.188.302-.035a8.52 8.52 0 0 1 .972-.059c1.717 0 2.998.589 4.034 1.854l.208.255.328.014c1.87.08 3.44.838 4.667 2.257.211.243.503.438.896.597 4.113 1.663 6.702 4.711 7.702 9.061l.047.205.149.148c.345.349.689.675 1.023.992.673.64 1.31 1.244 1.825 1.903 1.934 2.475 2.319 5.114 1.176 8.07z"/><path d="M62.318 23.212l-.447-.241-.383.334c-.878.765-1.869 1.211-2.941 1.325a11.68 11.68 0 0 1-6.167-1.009 9.954 9.954 0 0 0-1.767-.629 5.124 5.124 0 0 0-1.216-.16c-1.153 0-2.075.511-2.738 1.52-.091.142-.237.31-.404.31-.103 0-.232-.053-.368-.151-.153-.11-.409-.293-.045-.888.752-1.23 1.81-1.854 3.145-1.854.702.004 1.389.101 2.115.203.34.048.684.096 1.029.135l.737.083.076-.736c.021-.18.035-.365.05-.552.034-.394.067-.803.142-1.184.103-.54.361-.54.499-.54.051 0 .103.005.155.014.146.023.447.071.447.727.003.156-.006.313-.014.472-.02.438-.041.935.081 1.425.125.508.589 1.377 1.311 1.55.725.174 1.357.258 1.937.258 1.181 0 2.188-.341 3.079-1.045l.322-.254-.049-.407c-.492-4.215-2.654-7.085-6.424-8.529l-.237-.09c-.664-.247-1.053-.409-1.304-.848-.611-1.071-1.559-1.637-2.747-1.637-.304 0-.629.039-.966.112l-.292.065-.164.25c-.049.076-.102.151-.153.228a5.005 5.005 0 0 0-.41.656c-.357.703-1.217 2.184-.892 2.976.301.726 2.501.721 2.428 1.453-.065.632-2.432-.132-2.738-.216-1.32-.362-2.041-.168-3.394-.314a.42.42 0 0 1-.309-.191.592.592 0 0 1-.092-.46c.087-.331.43-.38.625-.38.045 0 .093.003.139.007l1.881.207.439-1.222c.163-.458.31-.875.476-1.286.178-.442.372-.878.582-1.343l.431-.981c.108-.254-.471-1.011-.612-1.208-.603-.83-1.982-.507-2.872-.323a2.804 2.804 0 0 1-.558.062c-.487 0-.832-.175-1.153-.586-.593-.76-1.371-1.161-2.245-1.161-.366 0-.748.07-1.139.21-.5.178-1.075.396-1.595.719l-.353.218.005.499c.013 1.192.086 1.797 1.566 2.545.274.139.378.317.308.531-.073.221-.274.253-.388.253a.68.68 0 0 1-.152-.017c-.121-.027-.241-.079-.362-.128a5.935 5.935 0 0 0-.258-.1 1.812 1.812 0 0 1-.667-.427l-.499-.492-.516.474c-.229.21-.486.376-.767.492a3.861 3.861 0 0 1-1.379.287c-.803 0-.858-.335-.885-.496-.036-.222-.077-.474 1.101-.676 1.729-.297 1.814-1.329 1.904-2.419l.054-.626-.389-.236c-1.541-.943-3.262-1.442-4.977-1.442-2.869 0-5.499 1.357-7.039 3.631l-.27.399.26.407c.068.107.134.225.202.345.188.334.403.712.721 1.038.4.41.841.754 1.268 1.089.168.13.337.262.502.398.331.271.419.542.262.808-.106.179-.247.269-.421.269a.845.845 0 0 1-.41-.13c-1.498-.883-2.508-1.933-3.09-3.21-.103-.227-.64-1.375-.64-1.375l-.465-.003c-2.774 0-4.267 1.03-4.9 3.34l-.071.262.353.754c.183.397.369.796.566 1.189.397.792.849 1.691 2.002 1.691.356 0 .759-.083 1.253-.208.096-.024.187-.036.271-.036.258 0 .429.107.522.327.116.279-.017.571-.339.746-.134.073-.283.12-.432.17-.097.034-.195.068-.291.104a2.126 2.126 0 0 1-.782.144c-.637 0-1.292-.26-1.964-.55l-.545-.236-.345.484c-.105.148-.204.292-.296.431a6.195 6.195 0 0 1-.503.683c-.08.089-.232.239-.353.239-.081 0-.2-.052-.336-.146-.242-.167-.335-.328-.148-.704.095-.188.206-.369.316-.549.147-.24.299-.488.428-.765.553-1.182.363-2.281-.535-3.097l-.256-.231-.34.048c-2.299.326-3.665 1.478-4.173 3.526-.198.798-.582 1.28-1.323 1.661-2.247 1.151-2.873 2.825-1.972 5.264l.088.239.218.133c.631.387 1.329.574 2.13.574a7.044 7.044 0 0 0 1.942-.3c.157-.045.31-.093.469-.113a.816.816 0 0 1 .128-.01c.197 0 .326.055.405.332.138.475-.052.57-.178.633-.311.156-.696.35-.997.369a51.3 51.3 0 0 1-2.702.085c-.37.005-1.604.029-1.604.029l-.181.45a9.887 9.887 0 0 0-.708 4.445c.096 1.313.744 2.355 1.875 3.012 1.5.871 3.082.968 4.703.996l.41.007.221-.344c.777-1.208.808-2.276.094-3.364-.134-.207-.19-.402-.156-.55a.438.438 0 0 1 .217-.268.578.578 0 0 1 .293-.093c.253 0 .483.251.599.4.674.879.894 1.678.691 2.517-.081.337-.472 2.001-.472 2.001l.375.291c.566.435 1.166.655 1.785.655 1.223 0 2.026-1.14 3.154-1.181 1.082-.039 1.413 1.273 1.96 1.956.679.846 1.673 1.267 2.729 1.39l.381.044.254-.286c.87-.981.703-1.979.478-2.838-.036-.137-.084-.323.359-.508a.438.438 0 0 1 .173-.034c.202 0 .398.116.491.29.33.613.397 1.319.206 2.159-.087.382-.241.765-.403 1.17-.078.195-.156.39-.227.585l-.145.4.273.325c1.103 1.308 2.685 2.057 4.341 2.057.837 0 1.644-.188 2.399-.559.199-.097.78-.34.956-.873 1.396-4.216 1.817-.138 1.963.038.637.766 1.782.73 2.699.73 2.828 0 5.826-1.267 7.291-3.081l.094-.772c-.447-.953-.579-1.048-1.866-1.772-.232-.13-.592-.407-.407-.799.095-.203.228-.289.445-.289.105 0 .225.022.355.064 1.55.517 2.393 1.406 2.654 2.797.044.24.094.48.14.704l.126.637.418.127c1.15.355 2.022.514 2.829.514 1.893 0 3.593-1.056 5.503-.974 3.223.141 6.275-.007 7.249-3.652a9.838 9.838 0 0 0 .32-1.987c.046-.806-.176-1.492-.64-1.982-.44-.468-1.062-.715-1.793-.715-.162 0-.332.013-.509.038-.353.051-.678.168-.966.271-.144.052-.287.104-.434.145a1.3 1.3 0 0 1-.345.053c-.185 0-.38-.044-.504-.372-.045-.117-.167-.429.383-.689.816-.388 1.556-.575 2.265-.575.508 0 .992.095 1.479.292l1.708.674.17-.865c.498-2.511-.641-4.851-2.975-6.106zm-40.071-1.158c-.15.089-.337.166-.536.246l-.28.117c-1.229.531-1.961 1.32-2.24 2.411l-.041.163.034.165c.301 1.475 1.353 2.388 2.28 3.193.941.817.743 1.197.637 1.336-.173.225-.275.348-.319.348h-.001c-.1 0-.397-.176-.994-.665-.328-.27-.646-.614-.921-.858l-.577-.537-.315.016c-.331.033-.65-.032-.958.007-.581.073-1.129.038-1.646.038h-.123c-.317 0-.566.002-.706-.152-.086-.097-.124-.749-.111-.894.017-.179.039-.954.854-.954h.141c.167 0 .337.574.527.567l1.005.265.037-.532.024-.285c.019-.255.034-.449.033-.679-.02-1.996 1.822-4.102 3.791-4.354.054-.007.107-.002.157-.002.379 0 .499.195.563.36.077.202.115.422-.315.68zm15.104 12.278a1.568 1.568 0 0 1-1.021.715 1.573 1.573 0 0 1-1.23-.204 1.574 1.574 0 0 1-.713-1.023 1.555 1.555 0 0 1 .205-1.229 1.563 1.563 0 0 1 1.021-.714 1.566 1.566 0 0 1 1.231.203c.375.237.614.579.713 1.023.099.442.032.853-.206 1.229zm3.303-10.97c-.621 2.18-2.235 2.97-4.218 3.689-.905.327-.238 3.296-.238 3.296l-1.916.515c-.449-1.313-.808-3.004-.957-4.372-.212-1.949 3.367-1.744 4.501-3.015 1.084-1.216.838-2.728.127-4.033-.84-1.539-2.555-2.413-4.279-1.94-.989.272-3.024 1.675-3.629.121-.452-1.166.888-2.285 1.849-2.556 4.603-1.293 10.117 3.515 8.76 8.295zm16.157 12.582a.44.44 0 0 1-.19.048c-.214 0-.444-.235-.562-.377-.594-.708-1.155-1.278-1.717-1.742-.505-.417-1.05-.783-1.577-1.14a39.148 39.148 0 0 1-.713-.484l-.392-.276-.412.25c-.812.493-1.422.713-1.981.713-.753 0-1.583-.416-2.77-1.389-.524-.43-.98-1.018-1.363-1.536-.186-.25-.275-.498-.248-.68a.398.398 0 0 1 .182-.265.483.483 0 0 1 .287-.096c.222 0 .468.145.676.396.771.94 1.946 2.187 3.234 2.187.052 0 .106-.002.161-.007.915-.074 1.656-.751 2.202-2.013.045-.105.085-.219.125-.334.032-.094.081-.239.108-.282.152-.099.337-.179.477-.179.312 0 .602.54.635 1.179.086 1.684 1.3 2.606 2.37 3.421.763.579 1.481 1.126 1.776 1.884.161.407-.08.618-.308.722z"/></g></svg>