<svg id="Layer_1" xmlns="http://www.w3.org/2000/svg" width="302" height="308" viewBox="0 0 302 308"><style>.st0{fill-rule:evenodd;clip-rule:evenodd;fill:#66bf77}</style><path class="st0" d="M239.403 70.16c-27.097 23.377-54.213 46.731-81.282 70.139a43922.435 43922.435 0 0 0-76.214 66.091c-1.7 1.476-3.141 1.719-5.355.799-19.121-7.949-38.315-15.725-57.479-23.568-4.066-1.665-7.139-4.116-7.432-9.004-.302-5.037 2.389-7.949 6.441-10.285A425040.596 425040.596 0 0 0 274.936 16.141c4.051-2.339 7.995-3.258 12.143-.462 4.191 2.826 4.714 6.923 3.954 11.488-3.817 22.929-7.598 45.864-11.419 68.792-5.187 31.116-10.416 62.224-15.595 93.341-4.116 24.73-8.272 49.455-12.212 74.214-.97 6.1-4.639 9.172-9.996 11.042-.857.3-1.529.305-2.328-.079-22.51-10.835-46.105-19.079-69.016-28.956-3-1.293-4.402-.454-6.193 1.759-11.102 13.714-22.316 27.336-33.494 40.987-.527.645-1.083 1.267-1.596 1.923-2.433 3.103-6.132 4.317-9.554 4.285-3.716-.034-7.845-6.099-7.932-10.764-.188-10.162-.2-20.33-.078-30.492.098-8.142-2.173-16.961.865-24.236 2.952-7.068 9.61-12.594 14.659-18.783 37.362-45.797 74.73-91.59 112.084-137.393.41-.502.67-1.125 1-1.692.664-.518 1.945-1.163 1.313-1.896-.832-.964-1.535.296-2.138.941z"/><path class="st0" d="M239.403 70.16c.603-.645 1.306-1.905 2.138-.942.633.733-.648 1.378-1.313 1.896l-.825-.954z"/></svg>