<svg id="Layer_1" xmlns="http://www.w3.org/2000/svg" viewBox="14355 -15 60 60"><style>.st0{fill:#fff}</style><path class="st0" d="M14381.6 27.4c-.3 0-.6-.1-.9-.1-2.3-.3-4.3-1.3-6-3l2.3-2.3c.2.2.4.3.6.5 1.6 1.3 3.5 1.7 5.5 1.5 1.4-.2 2.7-.7 3.8-1.6.2-.1.3-.3.5-.4l4.2-4.2.1-.1h-3.8v-3.3h9.9v9.8h-3.3v-4.6l-.1.1-4.3 4.3c-.3.3-.7.7-1 .9-1.6 1.3-3.5 2.1-5.5 2.4-.2 0-.4 0-.7.1h-1.3zm-10.1-22.1h3.3v4.6l.1-.1 4.5-4.5c1.8-1.8 4.1-2.8 6.6-3.1 2.4-.2 4.6.3 6.6 1.5.7.4 1.3.9 1.8 1.4 0 0 .1 0 .1.1-.8.8-1.5 1.6-2.3 2.3l-.3-.3c-1.2-1-2.6-1.6-4.2-1.7s-3.1.2-4.5 1c-.5.3-1 .7-1.4 1.1l-4.2 4.2-.1.1h3.8v3.3h-9.8V5.3z"/><path class="st0" d="M14384.6 42.7c-15.4 0-27.8-12.5-27.8-27.9s12.5-27.9 27.8-27.9c15.4 0 27.9 12.5 27.9 27.9s-12.5 27.9-27.9 27.9zm0-53.3c-14 0-25.3 11.4-25.3 25.4 0 14 11.4 25.4 25.3 25.4 14 0 25.4-11.4 25.4-25.4 0-14-11.4-25.4-25.4-25.4z"/></svg>