<svg version="1.2" baseProfile="tiny" id="Layer_1" xmlns="http://www.w3.org/2000/svg" width="305" height="74" viewBox="0 0 305 74"><g fill="#FDF8F6"><path d="M122.56 31.521l-5.276 2.686 4.264 2.118-52.52 26.099-52.357-26.099 3.862-2.114-5.255-2.675-9.432 4.789 63.182 31.51 63.346-31.51z"/><path d="M109.25 24.636l-5.169 2.633 4.558 2.278-39.611 19.806-39.609-19.806 4.449-2.144-5.121-2.607-9.738 4.862 50.019 25.107 50.122-25.119z"/><path d="M69.028 28.381L92.925 16.4 69.028 4.329 45.233 16.38l23.795 12.001zm13.227-12.027l-4.357 2.179-8.87 4.434-8.868-4.434-4.357-2.179 13.225-6.612 13.227 6.612z"/><path d="M96.335 18.113l-5.234 2.664 3.821 1.912-25.894 12.947-25.892-12.947 3.729-1.946-5.201-2.648-9.026 4.663 36.39 18.289 31.307-15.651 5.184-2.635z"/><g><path d="M157.117 49.095l-9.897-22.528h4.067l5.83 13.298 5.83-13.298h4.067l-9.897 22.528zM180.435 26.535c1.56 0 3.022.295 4.388.881a11.371 11.371 0 0 1 3.583 2.414 11.396 11.396 0 0 1 2.415 3.583c.586 1.365.88 2.828.88 4.386 0 1.562-.294 3.021-.88 4.39a11.415 11.415 0 0 1-2.415 3.582 11.335 11.335 0 0 1-3.583 2.413c-1.365.588-2.828.881-4.388.881-1.558 0-3.021-.293-4.386-.881a11.317 11.317 0 0 1-3.584-2.413 11.59 11.59 0 0 1-2.429-3.582 10.844 10.844 0 0 1-.896-4.39c0-1.558.299-3.021.896-4.386a11.554 11.554 0 0 1 2.429-3.583 11.353 11.353 0 0 1 3.584-2.414 11.004 11.004 0 0 1 4.386-.881zm0 18.824c1.032 0 2.01-.196 2.932-.591.92-.396 1.725-.932 2.413-1.609s1.229-1.479 1.624-2.398c.396-.92.592-1.908.592-2.962a7.288 7.288 0 0 0-.592-2.944 7.624 7.624 0 0 0-4.037-4.022 7.366 7.366 0 0 0-2.932-.593c-1.052 0-2.038.198-2.96.593s-1.726.936-2.414 1.625a7.68 7.68 0 0 0-1.624 2.397 7.325 7.325 0 0 0-.591 2.944 7.482 7.482 0 0 0 2.215 5.36 7.748 7.748 0 0 0 2.414 1.609 7.43 7.43 0 0 0 2.96.591zM195.48 49.095V26.566h3.31v19.219h9.686v3.31H195.48zM229.411 47.182c-.993.588-1.868 1.022-2.628 1.306a9.386 9.386 0 0 1-2.413.547c-1.68.182-3.27.005-4.767-.532a11.646 11.646 0 0 1-3.953-2.353 11.44 11.44 0 0 1-2.703-3.689 10.69 10.69 0 0 1-.995-4.568c0-1.579.302-3.076.904-4.494a11.223 11.223 0 0 1 2.535-3.705c1.087-1.051 2.375-1.856 3.863-2.413 1.487-.557 3.132-.773 4.933-.652.71.041 1.382.157 2.021.349.637.192 1.219.421 1.745.684l-1.457 2.915c-.668-.304-1.234-.496-1.701-.578a9.355 9.355 0 0 0-1.579-.121c-1.052 0-2.06.219-3.021.653a8.498 8.498 0 0 0-4.28 4.282 7.225 7.225 0 0 0-.652 3.021 7.16 7.16 0 0 0 .668 3.05 8.534 8.534 0 0 0 1.774 2.536 8.774 8.774 0 0 0 2.536 1.746 7.087 7.087 0 0 0 2.975.653c.385 0 .745-.016 1.079-.046s.668-.092 1.002-.183a6.845 6.845 0 0 0 1.031-.379 12.98 12.98 0 0 0 1.2-.639l1.883 2.61zM249.283 49.095l-1.306-3.067h-10.476l-1.305 3.067h-3.34l9.898-22.528 9.898 22.528h-3.369zm-10.352-6.376h7.62l-3.795-8.896-3.825 8.896zM269.521 40.808V26.566h3.31v22.528l-13.389-13.692v13.692h-3.311V26.566l13.39 14.242zM287.602 26.535c1.558 0 3.021.295 4.388.881a11.367 11.367 0 0 1 3.582 2.414 11.363 11.363 0 0 1 2.415 3.583c.586 1.365.88 2.828.88 4.386 0 1.562-.294 3.021-.88 4.39a11.381 11.381 0 0 1-2.415 3.582 11.33 11.33 0 0 1-3.582 2.413c-1.366.588-2.83.881-4.388.881-1.559 0-3.021-.293-4.387-.881a11.328 11.328 0 0 1-3.584-2.413 11.608 11.608 0 0 1-2.429-3.582 10.844 10.844 0 0 1-.896-4.39c0-1.558.299-3.021.896-4.386a11.571 11.571 0 0 1 2.429-3.583 11.364 11.364 0 0 1 3.584-2.414 11.005 11.005 0 0 1 4.387-.881zm0 18.824a7.351 7.351 0 0 0 2.93-.591c.922-.396 1.725-.932 2.414-1.609s1.229-1.479 1.624-2.398a7.43 7.43 0 0 0 .592-2.962 7.322 7.322 0 0 0-.592-2.944 7.617 7.617 0 0 0-4.038-4.022 7.35 7.35 0 0 0-2.93-.593 7.431 7.431 0 0 0-2.96.593 7.61 7.61 0 0 0-4.039 4.022 7.325 7.325 0 0 0-.591 2.944 7.482 7.482 0 0 0 2.215 5.36 7.753 7.753 0 0 0 2.415 1.609 7.43 7.43 0 0 0 2.96.591z"/></g></g></svg>