<svg id="Layer_1" xmlns="http://www.w3.org/2000/svg" width="381.158" height="191.309" viewBox="0 0 381.158 191.309"><style>.st0{opacity:.95}.st1{enable-background:new}.st2{fill:#fff}.st3{fill:#66bf77}</style><path class="st2" d="M190.336 0L0 96.384l190.336 94.924 190.822-94.924z"/><g class="st0"><g class="st1"><path class="st3" d="M103.49 86.984l-7.659 24.199h-.844l-7.676-22.34a5.034 5.034 0 0 1-.189-.688 5.181 5.181 0 0 1-.189.688l-7.71 22.34h-.826l-7.659-24.199h.774c.195 0 .321.098.379.293l6.678 21.497c.115.39.212.803.292 1.239.046-.229.095-.448.146-.654.052-.207.106-.401.164-.585l7.453-21.497c.057-.195.195-.293.413-.293h.224c.195 0 .321.098.378.293l7.453 21.497c.115.355.218.763.31 1.222.046-.229.092-.444.138-.646.046-.2.098-.393.155-.576l6.678-21.497c.057-.195.195-.293.413-.293h.704zm22.977 0v24.199h-.964V99.291h-16.265v11.893h-.947v-24.2h.947v11.549h16.265V86.984h.964zm25.403 24.199h-.74c-.172 0-.298-.098-.378-.293l-3.15-7.658h-12.427l-3.149 7.658c-.058.195-.189.293-.396.293h-.706l10.017-24.199h.912l10.017 24.199zm-4.578-8.674l-5.542-13.477c-.126-.31-.247-.653-.361-1.032a7.218 7.218 0 0 1-.361 1.032l-5.542 13.477h11.806zm22.031-14.699h-8.864v23.373h-.947V87.81h-8.916v-.826h18.726v.826zm41.926-.826l-7.658 24.199h-.844l-7.677-22.34a4.889 4.889 0 0 1-.188-.688 5.338 5.338 0 0 1-.189.688l-7.711 22.34h-.826l-7.659-24.199h.774c.195 0 .321.098.379.293l6.678 21.497c.115.39.212.803.292 1.239.046-.229.095-.448.146-.654.052-.207.106-.401.164-.585l7.452-21.497c.058-.195.195-.293.413-.293h.224c.195 0 .321.098.379.293l7.453 21.497c.114.355.217.763.309 1.222.047-.229.092-.444.139-.646.045-.2.098-.393.154-.576l6.678-21.497c.058-.195.195-.293.414-.293h.704zm19.121 23.391l-.033.809h-14.286v-24.2h14.286v.809h-13.34v10.723h11.24v.792h-11.24v11.067h13.373zm35.37-11.291c0 1.894-.275 3.589-.826 5.086s-1.325 2.766-2.323 3.804a10.033 10.033 0 0 1-3.58 2.384c-1.389.551-2.921.826-4.595.826h-8.727v-24.2h8.727c1.674 0 3.206.275 4.595.826a10.046 10.046 0 0 1 3.58 2.384c.998 1.039 1.772 2.307 2.323 3.804s.826 3.192.826 5.086zm-.999 0c0-1.801-.25-3.405-.748-4.811-.5-1.405-1.205-2.59-2.117-3.554s-2.003-1.698-3.271-2.203c-1.269-.505-2.665-.758-4.19-.758h-7.78v22.65h7.78c1.525 0 2.922-.252 4.19-.758a9.06 9.06 0 0 0 3.271-2.202c.912-.964 1.617-2.149 2.117-3.555.498-1.404.748-3.008.748-4.809zm28.124 0c0 1.894-.275 3.601-.826 5.12-.551 1.521-1.325 2.817-2.323 3.89a10.117 10.117 0 0 1-3.58 2.471c-1.388.573-2.926.86-4.612.86-1.664 0-3.19-.287-4.578-.86a10.073 10.073 0 0 1-3.58-2.471c-.998-1.072-1.773-2.369-2.324-3.89-.551-1.52-.826-3.227-.826-5.12 0-1.882.275-3.586.826-5.111.551-1.526 1.326-2.826 2.324-3.898a10.27 10.27 0 0 1 3.58-2.487c1.388-.585 2.914-.878 4.578-.878 1.687 0 3.225.29 4.612.869a10.202 10.202 0 0 1 3.58 2.479c.998 1.073 1.772 2.372 2.323 3.898s.826 3.234.826 5.128zm-.999 0c0-1.801-.25-3.416-.748-4.845-.5-1.429-1.205-2.643-2.117-3.641s-2.003-1.761-3.271-2.289c-1.269-.527-2.671-.792-4.208-.792-1.515 0-2.906.265-4.174.792a9.145 9.145 0 0 0-3.271 2.289c-.912.998-1.624 2.212-2.134 3.641-.511 1.429-.766 3.044-.766 4.845 0 1.802.255 3.417.766 4.845.51 1.429 1.222 2.637 2.134 3.623a9.232 9.232 0 0 0 3.271 2.272c1.268.527 2.659.791 4.174.791 1.537 0 2.939-.264 4.208-.791a9.232 9.232 0 0 0 3.271-2.272c.912-.986 1.617-2.194 2.117-3.623.498-1.428.748-3.044.748-4.845z"/></g></g></svg>