<?xml version="1.0" encoding="utf-8"?>
<!-- Generator: Adobe Illustrator 19.1.0, SVG Export Plug-In . SVG Version: 6.00 Build 0)  -->
<svg version="1.1" id="Layer_1" xmlns="http://www.w3.org/2000/svg" xmlns:xlink="http://www.w3.org/1999/xlink" x="0px" y="0px"
	 viewBox="14355 -17.2 60 60" style="enable-background:new 14355 -17.2 60 60;" xml:space="preserve">
<style type="text/css">
	.st0{fill:#FFFFFF;}
	.st1{fill:none;stroke:#FFFFFF;stroke-width:2.5;stroke-miterlimit:10;}
</style>
<g>
	<path class="st0" d="M14385.6,41.7l-25-14.5V-1.7l25-14.4l25.1,14.4v28.9L14385.6,41.7z M14363,25.8l22.5,13.1l22.6-13.1V-0.3
		l-22.6-13l-22.5,13V25.8z"/>
</g>
<g>
	<g>
		
			<rect x="14384.7" y="14.8" transform="matrix(0.8664 0.4993 -0.4993 0.8664 1930.1329 -7183.2207)" class="st0" width="13.6" height="2.5"/>
	</g>
	<g>
		
			<rect x="14360.9" y="1.1" transform="matrix(0.8664 0.4993 -0.4993 0.8664 1920.337 -7173.5537)" class="st0" width="13.6" height="2.5"/>
	</g>
	<g>
		
			<rect x="14371.9" y="-2.3" transform="matrix(0.866 0.5 -0.5 0.866 1927.1315 -7193.5376)" class="st0" width="27.6" height="2.5"/>
	</g>
</g>
<g>
	
		<rect x="14359.8" y="18.2" transform="matrix(0.8669 0.4985 -0.4985 0.8669 1922.6996 -7162.1563)" class="st0" width="27.7" height="2.5"/>
</g>
<g>
	<g>
		
			<rect x="14402.3" y="-4.4" transform="matrix(0.5047 0.8633 -0.8633 0.5047 7136.1963 -12433.2939)" class="st0" width="2.5" height="13.7"/>
	</g>
	<g>
		
			<rect x="14378.5" y="9.4" transform="matrix(0.4992 0.8665 -0.8665 0.4992 7214.6655 -12451.3154)" class="st0" width="2.5" height="13.6"/>
	</g>
	<g>
		
			<rect x="14396.2" y="5.8" transform="matrix(0.5048 0.8632 -0.8632 0.5048 7145.7974 -12418.3613)" class="st0" width="2.5" height="27.3"/>
	</g>
</g>
<g>
	
		<rect x="14384.3" y="-14.8" transform="matrix(0.4958 0.8685 -0.8685 0.4958 7252.9448 -12493.8008)" class="st0" width="2.5" height="27.6"/>
</g>
<g>
	<rect x="14384.3" y="25.5" class="st0" width="2.5" height="14.8"/>
</g>
<g>
	<rect x="14384.3" y="-1" class="st0" width="2.5" height="13.7"/>
</g>
<g>
	<rect x="14396.3" y="5.9" class="st0" width="2.5" height="27.5"/>
</g>
<g>
	<rect x="14372.3" y="5.9" class="st0" width="2.5" height="27.5"/>
</g>
</svg>
