<?xml version="1.0" encoding="utf-8"?>
<!-- Generator: Adobe Illustrator 19.1.0, SVG Export Plug-In . SVG Version: 6.00 Build 0)  -->
<svg version="1.1" id="Layer_1" xmlns="http://www.w3.org/2000/svg" xmlns:xlink="http://www.w3.org/1999/xlink" x="0px" y="0px"
	 viewBox="14353.7 -15 62.8 60" style="enable-background:new 14353.7 -15 62.8 60;" xml:space="preserve">
<style type="text/css">
	.st0{fill:#FFFFFF;}
</style>
<g>
	<path class="st0" d="M14372.4,1.8c-4.4,0-8-3.6-8-8s3.6-8,8-8s8,3.6,8,8S14376.8,1.8,14372.4,1.8z M14372.4-11.7
		c-3,0-5.5,2.4-5.5,5.5s2.4,5.5,5.5,5.5c3,0,5.5-2.4,5.5-5.5S14375.4-11.7,14372.4-11.7z"/>
</g>
<g>
	<path class="st0" d="M14408.1,23.3c-4.6,0-8.3-3.7-8.3-8.3c0-4.6,3.7-8.4,8.3-8.4c4.6,0,8.4,3.7,8.4,8.4
		C14416.5,19.6,14412.7,23.3,14408.1,23.3z M14408.1,9.1c-3.2,0-5.8,2.6-5.8,5.9s2.6,5.8,5.8,5.8s5.9-2.6,5.9-5.8
		S14411.3,9.1,14408.1,9.1z"/>
</g>
<g>
	<path class="st0" d="M14362.7,35.2c-4.6,0-8.3-3.7-8.3-8.4s3.7-8.4,8.3-8.4s8.4,3.7,8.4,8.4S14367.3,35.2,14362.7,35.2z
		 M14362.7,20.9c-3.2,0-5.8,2.6-5.8,5.9s2.6,5.9,5.8,5.9s5.9-2.6,5.9-5.9S14365.9,20.9,14362.7,20.9z"/>
</g>
<g>
	<path class="st0" d="M14382.9,21.3c-3.8,0-6.9-3.1-6.9-6.8s3.1-6.9,6.9-6.9c3.8,0,6.8,3.1,6.8,6.9S14386.7,21.3,14382.9,21.3z
		 M14382.9,10.1c-2.4,0-4.4,2-4.4,4.4s2,4.3,4.4,4.3s4.3-2,4.3-4.3S14385.3,10.1,14382.9,10.1z"/>
</g>
<g>
	<path class="st0" d="M14360.1,13.8c-2.7,0-4.9-2.2-4.9-4.9s2.2-4.9,4.9-4.9c2.7,0,4.9,2.2,4.9,4.9S14362.8,13.8,14360.1,13.8z
		 M14360.1,6c-1.6,0-2.9,1.3-2.9,2.9s1.3,2.9,2.9,2.9c1.6,0,2.9-1.3,2.9-2.9S14361.7,6,14360.1,6z"/>
</g>
<g>
	<path class="st0" d="M14400.5,2.6c-2.7,0-4.9-2.2-4.9-4.9s2.2-4.9,4.9-4.9s4.9,2.2,4.9,4.9S14403.2,2.6,14400.5,2.6z M14400.5-5.2
		c-1.6,0-2.9,1.3-2.9,2.9s1.3,2.9,2.9,2.9s2.9-1.3,2.9-2.9S14402.1-5.2,14400.5-5.2z"/>
</g>
<g>
	<path class="st0" d="M14389.4,42.7c-2.7,0-4.9-2.2-4.9-4.9s2.2-4.9,4.9-4.9c2.7,0,4.9,2.2,4.9,4.9S14392.1,42.7,14389.4,42.7z
		 M14389.4,34.9c-1.6,0-2.9,1.3-2.9,2.9s1.3,2.9,2.9,2.9c1.6,0,2.9-1.3,2.9-2.9S14391,34.9,14389.4,34.9z"/>
</g>
<g>
	
		<rect x="14372.4" y="3.8" transform="matrix(0.4848 0.8746 -0.8746 0.4848 7411.2383 -12572.2002)" class="st0" width="10.5" height="2.5"/>
</g>
<g>
	
		<rect x="14390.8" y="-1.6" transform="matrix(0.6382 0.7699 -0.7699 0.6382 5211.0244 -11077.7168)" class="st0" width="2.5" height="14.4"/>
</g>
<g>
	
		<rect x="14378.6" y="25.7" transform="matrix(0.2975 0.9547 -0.9547 0.2975 10132.4219 -13715.6992)" class="st0" width="14.5" height="2.5"/>
</g>
<g>
	
		<rect x="14372" y="14.5" transform="matrix(0.5089 0.8608 -0.8608 0.5089 7075.6826 -12362.9502)" class="st0" width="2.5" height="10.8"/>
</g>
<g>
	
		<rect x="14363.8" y="10.6" transform="matrix(0.9706 0.2408 -0.2408 0.9706 425.7423 -3460.22)" class="st0" width="13.7" height="2.5"/>
</g>
<g>
	
		<rect x="14393.5" y="9.1" transform="matrix(6.406853e-002 0.9979 -0.9979 6.406853e-002 13487.8682 -14350.7637)" class="st0" width="2.5" height="12.5"/>
</g>
</svg>
