<?xml version="1.0" encoding="utf-8"?>
<!-- Generator: Adobe Illustrator 19.1.0, SVG Export Plug-In . SVG Version: 6.00 Build 0)  -->
<svg version="1.1" id="Layer_1" xmlns="http://www.w3.org/2000/svg" xmlns:xlink="http://www.w3.org/1999/xlink" x="0px" y="0px"
	 viewBox="0 0 70 70" style="enable-background:new 0 0 70 70;" xml:space="preserve">
<style type="text/css">
	.st0{fill:#FFFFFF;}
</style>
<g>
	<path class="st0" d="M26.2,20.7c1.4,2.4,2.8,4.8,4.1,7.1c0.1,0.1,0.3,0.3,0.4,0.3c2.5-0.7,4.6,0.1,6.5,1.8c0.1-0.1,0.3-0.2,0.4-0.4
		c2.9-2.9,5.9-5.9,8.8-8.8c0.3-0.3,0.4-0.5,0.2-0.9c-1-2.2-0.4-4.5,1.6-6.1c1.9-1.5,4.2-1.5,6.1,0c1.9,1.5,2.6,3.8,1.8,5.8
		c-0.9,2.2-3.1,3.6-5.4,3.4c-0.5-0.1-1.1-0.3-1.6-0.5c-0.2,0-0.5,0-0.6,0.1c-3.2,3.1-6.3,6.3-9.4,9.4c-0.1,0.1-0.2,0.4-0.2,0.6
		c0.1,0.6,0.3,1.2,0.4,1.8c3.5,0,7.1,0,10.6,0c0.9-4.8,5.7-8.2,10.3-7.4c4.2,0.7,7.5,4.6,7.5,8.8c0.1,4.2-3.3,8.1-7.5,8.9
		c-4.5,0.8-9.4-2.5-10.3-7.4c-1.4,0-2.7,0-4.1,0c-2.2,0-4.3,0-6.5,0c-0.4,0-0.7,0.1-0.9,0.5c-0.6,1.2-1.5,2.1-2.6,2.8
		c0.5,1.7,0.9,3.5,1.4,5.2c0.7,2.7,1.5,5.3,2.2,8c0.1,0.5,0.4,0.6,0.8,0.7c2.3,0.3,4.2,2.1,4.6,4.4c0.3,2.1-0.6,3.7-2.2,4.9
		c-1.6,1.2-3.3,1.4-5,0.5c-3.1-1.6-4.5-5.6-1.1-8.6c0.2-0.1,0.3-0.4,0.2-0.6c-1.2-4.4-2.4-8.8-3.6-13.2c0-0.1-0.1-0.1-0.1-0.2
		c-1.6,0.2-3.1-0.2-4.5-1.2c-0.1-0.1-0.3-0.1-0.5,0c-2.9,1.6-5.8,3.3-8.8,5c0.9,2.7,0.6,5.3-0.9,7.7c-1.2,1.9-2.9,3.2-5.1,3.8
		C9.4,58.1,5,56,3,52c-1.9-3.9-0.6-8.4,3-11c3.5-2.5,8.4-2.4,12.1,1.9c2.8-1.6,5.6-3.2,8.3-4.7c-0.3-0.9-0.5-1.8-0.8-2.7
		c-0.1-0.2-0.3-0.3-0.5-0.4c-3.9-1.1-7.7-2.1-11.6-3.2c-0.4-0.1-0.6,0-0.8,0.3c-0.9,1.1-2,1.9-3.4,2.2c-3.4,0.6-6.7-3.1-5.7-6.4
		c0.7-2.3,3-3.9,5.3-3.8c2.2,0.1,4.3,2.1,4.8,4.4c0.1,0.4,0.2,0.7,0.7,0.8c3.7,1,7.4,2,11.2,3c0.2,0,0.3,0.1,0.4,0.1
		c0.7-1,1.3-1.9,2.1-2.9c-0.1-0.2-0.4-0.6-0.6-1c-1.2-2-2.3-4-3.4-5.9c-0.2-0.3-0.3-0.5-0.7-0.4c-4.7,1.5-9.4-1.7-10.9-5.8
		c-1.5-4.2,0.7-9,5-10.9c3.9-1.8,8.5-0.3,11,3.5c2.4,3.7,1.7,8.3-1.7,11.4C26.5,20.4,26.4,20.6,26.2,20.7z M27,13.6
		c0-3.6-2.5-6.2-6.2-6.2c-3.5,0-6.1,2.6-6.1,6.1c0,3.6,2.6,6.2,6.1,6.2C24.4,19.8,27,17.2,27,13.6z M58.9,29.7c-3.6,0-6.1,2.5-6.2,6
		c-0.1,3.6,2.5,6.2,6.1,6.2c3.6,0,6.1-2.5,6.2-6C65.1,32.3,62.6,29.7,58.9,29.7z M11.1,54.4c3.6,0,6.1-2.5,6.1-6.1
		c0-3.6-2.6-6.1-6.1-6.1c-3.6,0-6.1,2.5-6.1,6.1C5,51.9,7.5,54.4,11.1,54.4z M28.4,34.7c0,2.4,1.6,4.1,4,4.1c2.4,0,4-1.6,4.1-4
		c0-2.4-1.6-4.1-4-4.1C30.1,30.6,28.5,32.2,28.4,34.7z M39.9,57.2c-1.5,0-2.4,0.9-2.4,2.4c0,1.5,0.9,2.4,2.4,2.4
		c1.5,0,2.4-0.9,2.4-2.4C42.2,58.1,41.4,57.2,39.9,57.2z M51.3,20.2c1.5,0,2.4-0.9,2.4-2.3c0-1.5-0.9-2.4-2.4-2.4
		c-1.5,0-2.3,0.8-2.4,2.3C49,19.3,49.8,20.2,51.3,20.2z M11,29.3c0-1.5-0.8-2.4-2.3-2.5c-1.5-0.1-2.5,0.8-2.5,2.3
		c0,1.5,0.8,2.4,2.3,2.5C10,31.7,10.9,30.8,11,29.3z"/>
</g>
</svg>