<?xml version="1.0" encoding="utf-8"?>
<!-- Generator: Adobe Illustrator 16.0.0, SVG Export Plug-In . SVG Version: 6.00 Build 0)  -->
<!DOCTYPE svg PUBLIC "-//W3C//DTD SVG 1.1//EN" "http://www.w3.org/Graphics/SVG/1.1/DTD/svg11.dtd">
<svg version="1.1" id="Layer_1" xmlns="http://www.w3.org/2000/svg" xmlns:xlink="http://www.w3.org/1999/xlink" x="0px" y="0px"
	 width="86.661px" height="117.562px" viewBox="0 0 86.661 117.562" enable-background="new 0 0 86.661 117.562"
	 xml:space="preserve">
<g>
	<path fill="#F2385A" d="M86.204,73.501c-5.347-14.833-12.35-25.791-12.229-38.095C74.365-4.566,22.556-5.812,5.363,7.843
		c-6.994,5.554-5.734,29.655-4.025,58.477c0.902,15.218,1.352,31.15,3.571,46.234c15,3.215,30.093,5.353,45.458,4.962
		c5.692-0.146,11.398,0.751,15.23-3.961c1.228-1.509,3.443-17.218,3.4-17.219c-12.039-0.562-23.763-5.108-30.772-12.033
		c7.755,2.693,22.823,7.302,31.791,3.9l0.481-0.234c0.474-2.264,0.971-3.638,1.832-4.849C76.614,77.093,89.202,81.821,86.204,73.501
		z M67.545,31.321c-0.187,0.484-0.262,0.976-0.331,1.451c-0.037,0.235-0.071,0.472-0.122,0.703
		c-0.083,0.374-0.153,0.752-0.223,1.131c-0.165,0.883-0.318,1.718-0.631,2.467c-1.14,2.712-3.364,4.191-6.609,4.397
		c-0.507,0.032-1.017,0.055-1.524,0.077c-1.735,0.078-3.533,0.157-5.332,0.642c-0.451,0.121-0.92,0.18-1.438,0.18
		c-1.225,0-2.539-0.342-3.779-0.693l-0.319-0.09l-0.279,0.179c-1.898,1.219-3.606,1.93-5.375,2.236
		c-0.671,0.116-1.358,0.172-2.104,0.172c-0.816,0-1.688-0.067-2.745-0.211c-0.229-0.031-0.47-0.048-0.711-0.048
		c-0.53,0-1.014,0.079-1.437,0.235c-1.218,0.45-2.395,0.678-3.496,0.678c-2.21,0-4.181-0.885-6.022-2.705
		c-0.318-0.314-0.7-0.58-1.102-0.767c-0.305-0.141-0.618-0.26-0.934-0.379c-0.424-0.16-0.824-0.312-1.177-0.514
		c-0.38-0.218-0.746-0.528-1.134-0.855c-0.194-0.164-0.396-0.333-0.607-0.5l-0.307-0.242l-0.373,0.119
		c-0.695,0.224-1.385,0.336-2.052,0.336c-1.116,0-2.207-0.317-3.243-0.94c-0.417-0.251-0.899-0.277-1.286-0.297l-0.118-0.007
		c-1.689-0.103-3.634-0.291-5.33-1.229c-2.531-1.402-3.657-3.633-3.441-6.821c0.046-0.691,0.221-1.385,0.406-2.12
		c0.117-0.467,0.239-0.95,0.328-1.443c0.1-0.552,0.194-1.273,0.052-1.952c-0.626-2.972,0.284-5.358,2.707-7.096
		c0.353-0.252,0.846-0.65,1.064-1.197c1.006-2.501,2.834-4.051,5.59-4.733c0.103-0.024,0.204-0.068,0.289-0.107l0.146-0.069
		l0.155-0.146c0.195-0.23,0.38-0.466,0.564-0.701c0.379-0.482,0.737-0.938,1.148-1.309c1.275-1.152,2.876-1.767,4.896-1.884
		c0.672-0.04,1.396-0.16,2.121-0.776c2.229-1.887,4.706-2.843,7.364-2.843c1.461,0,3.017,0.286,4.622,0.853
		c0.328,0.115,0.649,0.254,0.989,0.399c0.172,0.073,0.806,0.338,0.806,0.338l0.277-0.11c0.992-0.396,1.942-0.596,2.825-0.596
		c1.332,0,2.531,0.438,3.664,1.337l0.239,0.188l0.302-0.035c0.338-0.039,0.664-0.059,0.972-0.059c1.717,0,2.998,0.589,4.034,1.854
		l0.208,0.255l0.328,0.014c1.87,0.08,3.44,0.838,4.667,2.257c0.211,0.243,0.503,0.438,0.896,0.597
		c4.113,1.663,6.702,4.711,7.702,9.061l0.047,0.205l0.149,0.148c0.345,0.349,0.689,0.675,1.023,0.992
		c0.673,0.64,1.31,1.244,1.825,1.903C68.303,25.726,68.688,28.365,67.545,31.321z"/>
	<path fill="#F2385A" d="M62.318,23.212l-0.447-0.241l-0.383,0.334c-0.878,0.765-1.869,1.211-2.941,1.325
		c-0.431,0.046-0.864,0.069-1.287,0.069c-1.674,0-3.317-0.364-4.88-1.078c-0.612-0.281-1.208-0.492-1.767-0.629
		c-0.444-0.108-0.842-0.16-1.216-0.16c-1.153,0-2.075,0.511-2.738,1.52c-0.091,0.142-0.237,0.31-0.404,0.31
		c-0.103,0-0.232-0.053-0.368-0.151c-0.153-0.11-0.409-0.293-0.045-0.888c0.752-1.23,1.81-1.854,3.145-1.854
		c0.702,0.004,1.389,0.101,2.115,0.203c0.34,0.048,0.684,0.096,1.029,0.135l0.737,0.083l0.076-0.736
		c0.021-0.18,0.035-0.365,0.05-0.552c0.034-0.394,0.067-0.803,0.142-1.184c0.103-0.54,0.361-0.54,0.499-0.54
		c0.051,0,0.103,0.005,0.155,0.014c0.146,0.023,0.447,0.071,0.447,0.727c0.003,0.156-0.006,0.313-0.014,0.472
		c-0.02,0.438-0.041,0.935,0.081,1.425c0.125,0.508,0.589,1.377,1.311,1.55c0.725,0.174,1.357,0.258,1.937,0.258
		c1.181,0,2.188-0.341,3.079-1.045l0.322-0.254l-0.049-0.407c-0.492-4.215-2.654-7.085-6.424-8.529l-0.237-0.09
		c-0.664-0.247-1.053-0.409-1.304-0.848c-0.611-1.071-1.559-1.637-2.747-1.637c-0.304,0-0.629,0.039-0.966,0.112l-0.292,0.065
		l-0.164,0.25c-0.049,0.076-0.102,0.151-0.153,0.228c-0.135,0.191-0.287,0.409-0.41,0.656c-0.357,0.703-1.217,2.184-0.892,2.976
		c0.301,0.726,2.501,0.721,2.428,1.453c-0.065,0.632-2.432-0.132-2.738-0.216c-1.32-0.362-2.041-0.168-3.394-0.314
		c-0.127-0.014-0.231-0.078-0.309-0.191c-0.093-0.136-0.129-0.316-0.092-0.46c0.087-0.331,0.43-0.38,0.625-0.38
		c0.045,0,0.093,0.003,0.139,0.007l1.881,0.207l0.439-1.222c0.163-0.458,0.31-0.875,0.476-1.286
		c0.178-0.442,0.372-0.878,0.582-1.343c0,0,0.431-0.979,0.431-0.981c0.108-0.254-0.471-1.011-0.612-1.208
		c-0.603-0.83-1.982-0.507-2.872-0.323c-0.205,0.042-0.392,0.062-0.558,0.062c-0.487,0-0.832-0.175-1.153-0.586
		c-0.593-0.76-1.371-1.161-2.245-1.161c-0.366,0-0.748,0.07-1.139,0.21c-0.5,0.178-1.075,0.396-1.595,0.719l-0.353,0.218
		l0.005,0.499c0.013,1.192,0.086,1.797,1.566,2.545c0.274,0.139,0.378,0.317,0.308,0.531c-0.073,0.221-0.274,0.253-0.388,0.253
		c-0.048,0-0.1-0.005-0.152-0.017c-0.121-0.027-0.241-0.079-0.362-0.128c-0.086-0.036-0.173-0.069-0.258-0.1
		c-0.25-0.09-0.468-0.231-0.667-0.427l-0.499-0.492l-0.516,0.474c-0.229,0.21-0.486,0.376-0.767,0.492
		c-0.333,0.139-0.871,0.287-1.379,0.287c-0.803,0-0.858-0.335-0.885-0.496c-0.036-0.222-0.077-0.474,1.101-0.676
		c1.729-0.297,1.814-1.329,1.904-2.419l0.054-0.626L35.932,7.77c-1.541-0.943-3.262-1.442-4.977-1.442
		c-2.869,0-5.499,1.357-7.039,3.631l-0.27,0.399l0.26,0.407c0.068,0.107,0.134,0.225,0.202,0.345
		c0.188,0.334,0.403,0.712,0.721,1.038c0.4,0.41,0.841,0.754,1.268,1.089c0.168,0.13,0.337,0.262,0.502,0.398
		c0.331,0.271,0.419,0.542,0.262,0.808c-0.106,0.179-0.247,0.269-0.421,0.269c-0.123,0-0.266-0.046-0.41-0.13
		c-1.498-0.883-2.508-1.933-3.09-3.21c-0.103-0.227-0.64-1.375-0.64-1.375l-0.465-0.003c-2.774,0-4.267,1.03-4.9,3.34l-0.071,0.262
		l0.353,0.754c0.183,0.397,0.369,0.796,0.566,1.189c0.397,0.792,0.849,1.691,2.002,1.691c0.356,0,0.759-0.083,1.253-0.208
		c0.096-0.024,0.187-0.036,0.271-0.036c0.258,0,0.429,0.107,0.522,0.327c0.116,0.279-0.017,0.571-0.339,0.746
		c-0.134,0.073-0.283,0.12-0.432,0.17c-0.097,0.034-0.195,0.068-0.291,0.104c-0.253,0.098-0.509,0.144-0.782,0.144
		c-0.637,0-1.292-0.26-1.964-0.55l-0.545-0.236l-0.345,0.484c-0.105,0.148-0.204,0.292-0.296,0.431
		c-0.178,0.266-0.333,0.493-0.503,0.683c-0.08,0.089-0.232,0.239-0.353,0.239c-0.081,0-0.2-0.052-0.336-0.146
		c-0.242-0.167-0.335-0.328-0.148-0.704c0.095-0.188,0.206-0.369,0.316-0.549c0.147-0.24,0.299-0.488,0.428-0.765
		c0.553-1.182,0.363-2.281-0.535-3.097l-0.256-0.231l-0.34,0.048c-2.299,0.326-3.665,1.478-4.173,3.526
		c-0.198,0.798-0.582,1.28-1.323,1.661c-2.247,1.151-2.873,2.825-1.972,5.264l0.088,0.239l0.218,0.133
		c0.631,0.387,1.329,0.574,2.13,0.574c0.454,0,0.934-0.059,1.51-0.184c0.146-0.034,0.29-0.074,0.432-0.116
		c0.157-0.045,0.31-0.093,0.469-0.113c0.044-0.007,0.087-0.01,0.128-0.01c0.197,0,0.326,0.055,0.405,0.332
		c0.138,0.475-0.052,0.57-0.178,0.633c-0.311,0.156-0.696,0.35-0.997,0.369c-0.887,0.059-1.767,0.072-2.702,0.085
		c-0.37,0.005-1.604,0.029-1.604,0.029l-0.181,0.45c-0.581,1.44-0.817,2.937-0.708,4.445c0.096,1.313,0.744,2.355,1.875,3.012
		c1.5,0.871,3.082,0.968,4.703,0.996l0.41,0.007l0.221-0.344c0.777-1.208,0.808-2.276,0.094-3.364
		c-0.134-0.207-0.19-0.402-0.156-0.55c0.025-0.105,0.098-0.196,0.217-0.268c0.104-0.062,0.202-0.093,0.293-0.093
		c0.253,0,0.483,0.251,0.599,0.4c0.674,0.879,0.894,1.678,0.691,2.517c-0.081,0.337-0.472,2.001-0.472,2.001l0.375,0.291
		c0.566,0.435,1.166,0.655,1.785,0.655c1.223,0,2.026-1.14,3.154-1.181c1.082-0.039,1.413,1.273,1.96,1.956
		c0.679,0.846,1.673,1.267,2.729,1.39l0.381,0.044l0.254-0.286c0.87-0.981,0.703-1.979,0.478-2.838
		c-0.036-0.137-0.084-0.323,0.359-0.508c0.054-0.023,0.112-0.034,0.173-0.034c0.202,0,0.398,0.116,0.491,0.29
		c0.33,0.613,0.397,1.319,0.206,2.159c-0.087,0.382-0.241,0.765-0.403,1.17c-0.078,0.195-0.156,0.39-0.227,0.585l-0.145,0.4
		l0.273,0.325c1.103,1.308,2.685,2.057,4.341,2.057c0.837,0,1.644-0.188,2.399-0.559c0.199-0.097,0.78-0.34,0.956-0.873
		c1.396-4.216,1.817-0.138,1.963,0.038c0.637,0.766,1.782,0.73,2.699,0.73c2.828,0,5.826-1.267,7.291-3.081l0.094-0.772
		c-0.447-0.953-0.579-1.048-1.866-1.772c-0.232-0.13-0.592-0.407-0.407-0.799c0.095-0.203,0.228-0.289,0.445-0.289
		c0.105,0,0.225,0.022,0.355,0.064c1.55,0.517,2.393,1.406,2.654,2.797c0.044,0.24,0.094,0.48,0.14,0.704l0.126,0.637l0.418,0.127
		c1.15,0.355,2.022,0.514,2.829,0.514c1.893,0,3.593-1.056,5.503-0.974c3.223,0.141,6.275-0.007,7.249-3.652
		c0.175-0.649,0.281-1.317,0.32-1.987c0.046-0.806-0.176-1.492-0.64-1.982c-0.44-0.468-1.062-0.715-1.793-0.715
		c-0.162,0-0.332,0.013-0.509,0.038c-0.353,0.051-0.678,0.168-0.966,0.271c-0.144,0.052-0.287,0.104-0.434,0.145
		c-0.126,0.035-0.241,0.053-0.345,0.053c-0.185,0-0.38-0.044-0.504-0.372c-0.045-0.117-0.167-0.429,0.383-0.689
		c0.816-0.388,1.556-0.575,2.265-0.575c0.508,0,0.992,0.095,1.479,0.292l1.708,0.674l0.17-0.865
		C65.791,26.807,64.652,24.467,62.318,23.212z M22.247,22.054c-0.15,0.089-0.337,0.166-0.536,0.246
		c-0.093,0.038-0.188,0.078-0.28,0.117c-1.229,0.531-1.961,1.32-2.24,2.411l-0.041,0.163l0.034,0.165
		c0.301,1.475,1.353,2.388,2.28,3.193c0.941,0.817,0.743,1.197,0.637,1.336c-0.173,0.225-0.275,0.348-0.319,0.348h-0.001
		c-0.1,0-0.397-0.176-0.994-0.665c-0.328-0.27-0.646-0.614-0.921-0.858l-0.577-0.537l-0.315,0.016
		c-0.331,0.033-0.65-0.032-0.958,0.007c-0.581,0.073-1.129,0.038-1.646,0.038h-0.123c-0.317,0-0.566,0.002-0.706-0.152
		c-0.086-0.097-0.124-0.749-0.111-0.894c0.017-0.179,0.039-0.954,0.854-0.954h0.141c0.167,0,0.337,0.574,0.527,0.567l1.005,0.265
		l0.037-0.532l0.024-0.285c0.019-0.255,0.034-0.449,0.033-0.679c-0.02-1.996,1.822-4.102,3.791-4.354
		c0.054-0.007,0.107-0.002,0.157-0.002c0.379,0,0.499,0.195,0.563,0.36C22.639,21.576,22.677,21.796,22.247,22.054z M37.351,34.332
		c-0.236,0.376-0.577,0.614-1.021,0.715c-0.443,0.101-0.854,0.032-1.23-0.204c-0.375-0.238-0.613-0.579-0.713-1.023
		c-0.102-0.443-0.034-0.852,0.205-1.229c0.235-0.376,0.578-0.614,1.021-0.714c0.445-0.102,0.854-0.034,1.231,0.203
		c0.375,0.237,0.614,0.579,0.713,1.023C37.656,33.545,37.589,33.956,37.351,34.332z M40.654,23.362
		c-0.621,2.18-2.235,2.97-4.218,3.689c-0.905,0.327-0.238,3.296-0.238,3.296l-1.916,0.515c-0.449-1.313-0.808-3.004-0.957-4.372
		c-0.212-1.949,3.367-1.744,4.501-3.015c1.084-1.216,0.838-2.728,0.127-4.033c-0.84-1.539-2.555-2.413-4.279-1.94
		c-0.989,0.272-3.024,1.675-3.629,0.121c-0.452-1.166,0.888-2.285,1.849-2.556C36.497,13.774,42.011,18.582,40.654,23.362z
		 M56.811,35.944c-0.07,0.033-0.131,0.048-0.19,0.048c-0.214,0-0.444-0.235-0.562-0.377c-0.594-0.708-1.155-1.278-1.717-1.742
		c-0.505-0.417-1.05-0.783-1.577-1.14c-0.237-0.157-0.474-0.318-0.713-0.484l-0.392-0.276l-0.412,0.25
		c-0.812,0.493-1.422,0.713-1.981,0.713c-0.753,0-1.583-0.416-2.77-1.389c-0.524-0.43-0.98-1.018-1.363-1.536
		c-0.186-0.25-0.275-0.498-0.248-0.68c0.017-0.105,0.077-0.191,0.182-0.265c0.09-0.064,0.184-0.096,0.287-0.096
		c0.222,0,0.468,0.145,0.676,0.396c0.771,0.94,1.946,2.187,3.234,2.187c0.052,0,0.106-0.002,0.161-0.007
		c0.915-0.074,1.656-0.751,2.202-2.013c0.045-0.105,0.085-0.219,0.125-0.334c0.032-0.094,0.081-0.239,0.108-0.282
		c0.152-0.099,0.337-0.179,0.477-0.179c0.312,0,0.602,0.54,0.635,1.179c0.086,1.684,1.3,2.606,2.37,3.421
		c0.763,0.579,1.481,1.126,1.776,1.884C57.28,35.629,57.039,35.84,56.811,35.944z"/>
</g>
</svg>
