<?xml version="1.0" encoding="utf-8"?>
<!-- Generator: Adobe Illustrator 19.1.0, SVG Export Plug-In . SVG Version: 6.00 Build 0)  -->
<svg version="1.1" id="Layer_1" xmlns="http://www.w3.org/2000/svg" xmlns:xlink="http://www.w3.org/1999/xlink" x="0px" y="0px"
	 viewBox="14355 -15 60 60" style="enable-background:new 14355 -15 60 60;" xml:space="preserve">
<style type="text/css">
	.st0{fill:#FFFFFF;}
</style>
<g>
	<g>
		<g>
			<path class="st0" d="M14381.6,27.4c-0.3,0-0.6-0.1-0.9-0.1c-2.3-0.3-4.3-1.3-6-3l0,0c0.8-0.8,1.5-1.5,2.3-2.3
				c0.2,0.2,0.4,0.3,0.6,0.5c1.6,1.3,3.5,1.7,5.5,1.5c1.4-0.2,2.7-0.7,3.8-1.6c0.2-0.1,0.3-0.3,0.5-0.4c1.4-1.4,2.8-2.8,4.2-4.2
				l0.1-0.1c-1.3,0-2.6,0-3.8,0c0-1.1,0-2.2,0-3.3c0.1,0,0.1,0,0.2,0c3.2,0,6.3,0,9.5,0c0.1,0,0.1,0,0.2,0c0,3.3,0,6.6,0,9.8
				c-1.1,0-2.2,0-3.3,0c0-1.5,0-3.1,0-4.6c-0.1,0.1-0.1,0.1-0.1,0.1c-1.4,1.4-2.9,2.9-4.3,4.3c-0.3,0.3-0.7,0.7-1,0.9
				c-1.6,1.3-3.5,2.1-5.5,2.4c-0.2,0-0.4,0-0.7,0.1C14382.3,27.4,14382,27.4,14381.6,27.4z"/>
		</g>
		<g>
			<path class="st0" d="M14371.5,5.3c1.1,0,2.2,0,3.3,0c0,1.5,0,3,0,4.6c0.1-0.1,0.1-0.1,0.1-0.1c1.5-1.5,3-3,4.5-4.5
				c1.8-1.8,4.1-2.8,6.6-3.1c2.4-0.2,4.6,0.3,6.6,1.5c0.7,0.4,1.3,0.9,1.8,1.4c0,0,0.1,0,0.1,0.1c-0.8,0.8-1.5,1.6-2.3,2.3
				c-0.1-0.1-0.2-0.2-0.3-0.3c-1.2-1-2.6-1.6-4.2-1.7s-3.1,0.2-4.5,1c-0.5,0.3-1,0.7-1.4,1.1c-1.4,1.4-2.8,2.8-4.2,4.2l-0.1,0.1
				c1.3,0,2.6,0,3.8,0c0,1.1,0,2.2,0,3.3c-3.3,0-6.5,0-9.8,0C14371.5,11.9,14371.5,8.6,14371.5,5.3z"/>
		</g>
	</g>
	<g>
		<path class="st0" d="M14384.6,42.7c-15.4,0-27.8-12.5-27.8-27.9s12.5-27.9,27.8-27.9c15.4,0,27.9,12.5,27.9,27.9
			S14400,42.7,14384.6,42.7z M14384.6-10.6c-14,0-25.3,11.4-25.3,25.4c0,14,11.4,25.4,25.3,25.4c14,0,25.4-11.4,25.4-25.4
			C14410,0.8,14398.6-10.6,14384.6-10.6z"/>
	</g>
</g>
</svg>
