<?xml version="1.0" encoding="iso-8859-1"?>
<!-- Generator: Adobe Illustrator 16.0.0, SVG Export Plug-In . SVG Version: 6.00 Build 0)  -->
<svg version="1.2" baseProfile="tiny" id="Layer_1" xmlns="http://www.w3.org/2000/svg" xmlns:xlink="http://www.w3.org/1999/xlink"
	 x="0px" y="0px" width="221.25px" height="48px" viewBox="0 0 221.25 48" xml:space="preserve">
<g>
	<polygon fill="#FDF8F6" points="87.629,19.842 83.727,21.828 86.881,23.395 48.036,42.697 9.311,23.395 12.167,21.831 8.28,19.852 
		1.304,23.395 48.036,46.701 94.888,23.395 	"/>
	<polygon fill="#FDF8F6" points="77.785,14.749 73.961,16.696 77.333,18.382 48.036,33.029 18.739,18.382 22.03,16.796 
		18.242,14.867 11.04,18.464 48.036,37.033 85.107,18.455 	"/>
	<g>
		<path fill="#FDF8F6" d="M48.036,17.519L65.71,8.657L48.036-0.27l-17.6,8.913L48.036,17.519z M57.818,8.624l-3.223,1.612
			l-6.56,3.279l-6.559-3.279l-3.223-1.612l9.782-4.891L57.818,8.624z"/>
		<polygon fill="#FDF8F6" points="68.232,9.925 64.361,11.896 67.188,13.309 48.036,22.885 28.884,13.309 31.643,11.87 
			27.796,9.912 21.12,13.36 48.036,26.888 71.191,15.311 75.025,13.362 		"/>
	</g>
</g>
<g>
	<path fill="#FDF8F6" d="M115.189,32.84l-7.321-16.663h3.009l4.312,9.837l4.312-9.837h3.009L115.189,32.84z"/>
	<path fill="#FDF8F6" d="M132.436,16.154c1.153,0,2.235,0.217,3.245,0.651c1.011,0.434,1.894,1.029,2.65,1.785
		c0.755,0.756,1.351,1.64,1.786,2.65c0.434,1.011,0.65,2.093,0.65,3.245c0,1.153-0.217,2.235-0.65,3.245
		c-0.436,1.011-1.031,1.895-1.786,2.65c-0.757,0.756-1.64,1.352-2.65,1.785c-1.01,0.435-2.092,0.651-3.245,0.651
		c-1.152,0-2.234-0.217-3.244-0.651c-1.012-0.434-1.895-1.029-2.65-1.785s-1.355-1.64-1.797-2.65
		c-0.441-1.01-0.662-2.092-0.662-3.245c0-1.152,0.221-2.234,0.662-3.245c0.441-1.01,1.041-1.894,1.797-2.65
		c0.756-0.756,1.639-1.351,2.65-1.785C130.201,16.372,131.283,16.154,132.436,16.154z M132.436,30.078
		c0.764,0,1.486-0.146,2.168-0.438c0.681-0.292,1.275-0.688,1.785-1.19c0.509-0.501,0.909-1.092,1.201-1.773
		c0.293-0.682,0.438-1.411,0.438-2.19c0-0.778-0.145-1.504-0.438-2.178c-0.292-0.674-0.692-1.265-1.201-1.774
		c-0.51-0.509-1.104-0.91-1.785-1.202c-0.682-0.292-1.404-0.438-2.168-0.438c-0.778,0-1.508,0.146-2.189,0.438
		s-1.276,0.693-1.785,1.202s-0.909,1.1-1.201,1.774s-0.438,1.4-0.438,2.178c0,0.779,0.146,1.508,0.438,2.19s0.692,1.272,1.201,1.773
		c0.509,0.502,1.104,0.898,1.785,1.19S131.657,30.078,132.436,30.078z"/>
	<path fill="#FDF8F6" d="M143.563,32.84V16.177h2.448v14.216h7.164v2.447H143.563z"/>
	<path fill="#FDF8F6" d="M168.66,31.426c-0.734,0.434-1.382,0.756-1.943,0.965c-0.561,0.21-1.156,0.345-1.785,0.404
		c-1.242,0.135-2.418,0.004-3.525-0.393c-1.108-0.396-2.083-0.977-2.924-1.74c-0.842-0.764-1.508-1.674-1.999-2.729
		c-0.491-1.057-0.736-2.183-0.736-3.38c0-1.168,0.223-2.275,0.669-3.323c0.445-1.048,1.07-1.961,1.875-2.74
		c0.804-0.778,1.757-1.373,2.857-1.785c1.1-0.412,2.316-0.573,3.648-0.483c0.524,0.03,1.021,0.116,1.494,0.258
		c0.471,0.143,0.901,0.311,1.291,0.505l-1.078,2.156c-0.494-0.224-0.913-0.367-1.258-0.427c-0.344-0.06-0.733-0.09-1.168-0.09
		c-0.778,0-1.523,0.161-2.234,0.483s-1.336,0.752-1.875,1.292c-0.539,0.539-0.969,1.164-1.291,1.875
		c-0.322,0.711-0.482,1.456-0.482,2.234c0,0.794,0.164,1.546,0.494,2.257c0.328,0.711,0.766,1.336,1.313,1.875
		s1.172,0.969,1.876,1.291c0.703,0.322,1.437,0.482,2.2,0.482c0.284,0,0.551-0.011,0.798-0.033s0.494-0.067,0.741-0.135
		c0.246-0.067,0.501-0.16,0.763-0.281c0.263-0.119,0.558-0.276,0.888-0.471L168.66,31.426z"/>
	<path fill="#FDF8F6" d="M183.358,32.84l-0.966-2.268h-7.748l-0.965,2.268h-2.471l7.321-16.663l7.321,16.663H183.358z
		 M175.701,28.124h5.636l-2.807-6.58L175.701,28.124z"/>
	<path fill="#FDF8F6" d="M198.326,26.709V16.177h2.448V32.84l-9.903-10.128V32.84h-2.448V16.177L198.326,26.709z"/>
	<path fill="#FDF8F6" d="M211.7,16.154c1.151,0,2.234,0.217,3.245,0.651c1.01,0.434,1.894,1.029,2.649,1.785
		c0.757,0.756,1.351,1.64,1.786,2.65c0.434,1.011,0.65,2.093,0.65,3.245c0,1.153-0.217,2.235-0.65,3.245
		c-0.436,1.011-1.029,1.895-1.786,2.65c-0.756,0.756-1.64,1.352-2.649,1.785c-1.011,0.435-2.094,0.651-3.245,0.651
		c-1.153,0-2.235-0.217-3.245-0.651c-1.011-0.434-1.895-1.029-2.65-1.785s-1.354-1.64-1.797-2.65
		c-0.441-1.01-0.662-2.092-0.662-3.245c0-1.152,0.221-2.234,0.662-3.245c0.442-1.01,1.041-1.894,1.797-2.65
		c0.756-0.756,1.64-1.351,2.65-1.785C209.465,16.372,210.547,16.154,211.7,16.154z M211.7,30.078c0.764,0,1.485-0.146,2.167-0.438
		s1.275-0.688,1.785-1.19c0.51-0.501,0.908-1.092,1.201-1.773c0.292-0.682,0.438-1.411,0.438-2.19c0-0.778-0.146-1.504-0.438-2.178
		c-0.293-0.674-0.691-1.265-1.201-1.774s-1.104-0.91-1.785-1.202s-1.403-0.438-2.167-0.438c-0.778,0-1.509,0.146-2.189,0.438
		c-0.683,0.292-1.276,0.693-1.786,1.202c-0.509,0.509-0.909,1.1-1.201,1.774s-0.438,1.4-0.438,2.178c0,0.779,0.146,1.508,0.438,2.19
		s0.692,1.272,1.201,1.773c0.51,0.502,1.104,0.898,1.786,1.19C210.191,29.932,210.922,30.078,211.7,30.078z"/>
</g>
</svg>
