<?xml version="1.0" encoding="iso-8859-1"?>
<!-- Generator: Adobe Illustrator 16.0.0, SVG Export Plug-In . SVG Version: 6.00 Build 0)  -->
<svg version="1.2" baseProfile="tiny" id="Layer_1" xmlns="http://www.w3.org/2000/svg" xmlns:xlink="http://www.w3.org/1999/xlink"
	 x="0px" y="0px" width="305px" height="74px" viewBox="0 0 305 74" xml:space="preserve">
<g>
	<rect x="-52.055" y="-27.078" display="none" fill="#333333" width="400" height="121.156"/>
	<g>
		<polygon fill="#FDF8F6" points="122.56,31.521 117.284,34.207 121.548,36.325 69.028,62.424 16.671,36.325 20.533,34.211 
			15.278,31.536 5.846,36.325 69.028,67.835 132.374,36.325 		"/>
		<polygon fill="#FDF8F6" points="109.25,24.636 104.081,27.269 108.639,29.547 69.028,49.353 29.419,29.547 33.868,27.403 
			28.747,24.796 19.009,29.658 69.028,54.765 119.15,29.646 		"/>
		<g>
			<path fill="#FDF8F6" d="M69.028,28.381l23.897-11.981L69.028,4.329L45.233,16.38L69.028,28.381z M82.255,16.354l-4.357,2.179
				l-8.87,4.434l-8.868-4.434l-4.357-2.179l13.225-6.612L82.255,16.354z"/>
			<polygon fill="#FDF8F6" points="96.335,18.113 91.101,20.777 94.922,22.689 69.028,35.636 43.136,22.689 46.865,20.743 
				41.664,18.095 32.638,22.758 69.028,41.047 100.335,25.396 105.519,22.761 			"/>
		</g>
	</g>
	<g>
		<path fill="#FDF8F6" d="M157.117,49.095l-9.897-22.528h4.067l5.83,13.298l5.83-13.298h4.067L157.117,49.095z"/>
		<path fill="#FDF8F6" d="M180.435,26.535c1.56,0,3.022,0.295,4.388,0.881c1.366,0.587,2.561,1.393,3.583,2.414
			c1.021,1.021,1.826,2.217,2.415,3.583c0.586,1.365,0.88,2.828,0.88,4.386c0,1.562-0.294,3.021-0.88,4.39
			c-0.589,1.365-1.394,2.56-2.415,3.582c-1.022,1.023-2.217,1.826-3.583,2.413c-1.365,0.588-2.828,0.881-4.388,0.881
			c-1.558,0-3.021-0.293-4.386-0.881c-1.368-0.587-2.562-1.39-3.584-2.413c-1.021-1.022-1.832-2.217-2.429-3.582
			c-0.597-1.368-0.896-2.828-0.896-4.39c0-1.558,0.299-3.021,0.896-4.386c0.597-1.366,1.407-2.562,2.429-3.583
			c1.022-1.021,2.216-1.827,3.584-2.414C177.414,26.83,178.877,26.535,180.435,26.535z M180.435,45.359
			c1.032,0,2.01-0.196,2.932-0.591c0.92-0.396,1.725-0.932,2.413-1.609s1.229-1.479,1.624-2.398c0.396-0.92,0.592-1.908,0.592-2.962
			c0-1.051-0.195-2.033-0.592-2.944c-0.395-0.91-0.936-1.71-1.624-2.397c-0.688-0.689-1.493-1.23-2.413-1.625
			c-0.922-0.395-1.899-0.593-2.932-0.593c-1.052,0-2.038,0.198-2.96,0.593s-1.726,0.936-2.414,1.625
			c-0.688,0.688-1.229,1.487-1.624,2.397c-0.395,0.911-0.591,1.894-0.591,2.944c0,1.054,0.196,2.042,0.591,2.962
			c0.396,0.92,0.937,1.721,1.624,2.398c0.688,0.678,1.492,1.214,2.414,1.609C178.396,45.163,179.383,45.359,180.435,45.359z"/>
		<path fill="#FDF8F6" d="M195.48,49.095V26.566h3.31v19.219h9.686v3.31H195.48z"/>
		<path fill="#FDF8F6" d="M229.411,47.182c-0.993,0.588-1.868,1.022-2.628,1.306c-0.758,0.284-1.563,0.466-2.413,0.547
			c-1.68,0.182-3.27,0.005-4.767-0.532c-1.498-0.536-2.816-1.32-3.953-2.353c-1.138-1.032-2.038-2.261-2.703-3.689
			c-0.664-1.426-0.995-2.949-0.995-4.568c0-1.579,0.302-3.076,0.904-4.494c0.603-1.416,1.447-2.651,2.535-3.705
			c1.087-1.051,2.375-1.856,3.863-2.413c1.487-0.557,3.132-0.773,4.933-0.652c0.71,0.041,1.382,0.157,2.021,0.349
			c0.637,0.192,1.219,0.421,1.745,0.684l-1.457,2.915c-0.668-0.304-1.234-0.496-1.701-0.578c-0.464-0.08-0.991-0.121-1.579-0.121
			c-1.052,0-2.06,0.219-3.021,0.653c-0.962,0.435-1.807,1.018-2.535,1.747c-0.729,0.728-1.31,1.573-1.745,2.535
			c-0.436,0.961-0.652,1.967-0.652,3.021c0,1.072,0.222,2.089,0.668,3.05c0.443,0.963,1.035,1.808,1.774,2.536
			c0.739,0.728,1.584,1.312,2.536,1.746c0.951,0.434,1.942,0.653,2.975,0.653c0.385,0,0.745-0.016,1.079-0.046
			s0.668-0.092,1.002-0.183c0.333-0.091,0.678-0.218,1.031-0.379c0.355-0.162,0.754-0.375,1.2-0.639L229.411,47.182z"/>
		<path fill="#FDF8F6" d="M249.283,49.095l-1.306-3.067h-10.476l-1.305,3.067h-3.34l9.898-22.528l9.898,22.528H249.283z
			 M238.931,42.719h7.62l-3.795-8.896L238.931,42.719z"/>
		<path fill="#FDF8F6" d="M269.521,40.808V26.566h3.31v22.528l-13.389-13.692v13.692h-3.311V26.566L269.521,40.808z"/>
		<path fill="#FDF8F6" d="M287.602,26.535c1.558,0,3.021,0.295,4.388,0.881c1.365,0.587,2.561,1.393,3.582,2.414
			c1.023,1.021,1.826,2.217,2.415,3.583c0.586,1.365,0.88,2.828,0.88,4.386c0,1.562-0.294,3.021-0.88,4.39
			c-0.589,1.365-1.392,2.56-2.415,3.582c-1.021,1.023-2.217,1.826-3.582,2.413c-1.366,0.588-2.83,0.881-4.388,0.881
			c-1.559,0-3.021-0.293-4.387-0.881c-1.367-0.587-2.562-1.39-3.584-2.413c-1.021-1.022-1.831-2.217-2.429-3.582
			c-0.597-1.368-0.896-2.828-0.896-4.39c0-1.558,0.299-3.021,0.896-4.386c0.598-1.366,1.407-2.562,2.429-3.583
			c1.022-1.021,2.217-1.827,3.584-2.414C284.58,26.83,286.043,26.535,287.602,26.535z M287.602,45.359
			c1.033,0,2.009-0.196,2.93-0.591c0.922-0.396,1.725-0.932,2.414-1.609s1.229-1.479,1.624-2.398
			c0.395-0.92,0.592-1.908,0.592-2.962c0-1.051-0.197-2.033-0.592-2.944c-0.396-0.91-0.935-1.71-1.624-2.397
			c-0.689-0.689-1.492-1.23-2.414-1.625c-0.921-0.395-1.896-0.593-2.93-0.593c-1.052,0-2.039,0.198-2.96,0.593
			c-0.923,0.395-1.726,0.936-2.415,1.625c-0.688,0.688-1.229,1.487-1.624,2.397c-0.395,0.911-0.591,1.894-0.591,2.944
			c0,1.054,0.196,2.042,0.591,2.962c0.396,0.92,0.937,1.721,1.624,2.398c0.689,0.678,1.492,1.214,2.415,1.609
			C285.563,45.163,286.55,45.359,287.602,45.359z"/>
	</g>
</g>
<g display="none">
	<polygon display="inline" fill="#333333" points="166.56,-336.002 173.954,-339.699 151.506,-350.924 129.057,-339.699 
		136.453,-336.002 151.506,-328.475 	"/>
	<path display="inline" fill="#333333" d="M27-376v141h247v-141H27z M151.506-360.111l40.561,20.487l-40.561,20.336l-40.392-20.369
		L151.506-360.111z M105.057-336.746l8.828,4.495l-6.33,3.302l43.95,21.975l43.95-21.975l-6.485-3.243l8.884-4.523l15.587,7.887
		l-8.799,4.472l-53.137,26.568l-61.769-31.045L105.057-336.746z M83.132-325.373l8.693,4.426l-7.551,3.639l67.232,33.617
		l67.232-33.617l-7.737-3.868l8.775-4.468l16.803,8.503l-85.073,42.636l-84.902-42.613L83.132-325.373z M151.506-252.318
		L44.261-305.804l16.011-8.129l8.917,4.541l-6.554,3.588l88.871,44.299l89.146-44.299l-7.239-3.595l8.955-4.559l16.657,8.154
		L151.506-252.318z"/>
</g>
<g display="none">
	<path display="inline" fill="#333333" d="M-44.896-150.774l-30.971-70.492h12.73l18.241,41.61l18.24-41.61h12.73L-44.896-150.774z"
		/>
	<path display="inline" fill="#333333" d="M28.065-221.361c4.876,0,9.453,0.919,13.726,2.755c4.276,1.837,8.013,4.355,11.212,7.553
		c3.197,3.2,5.715,6.935,7.553,11.21c1.834,4.274,2.754,8.851,2.754,13.728c0,4.877-0.92,9.452-2.754,13.727
		c-1.838,4.276-4.356,8.014-7.553,11.211c-3.199,3.199-6.936,5.716-11.212,7.553c-4.273,1.837-8.85,2.755-13.726,2.755
		c-4.878,0-9.453-0.918-13.728-2.755c-4.276-1.837-8.013-4.354-11.21-7.553c-3.2-3.197-5.734-6.935-7.6-11.211
		c-1.869-4.275-2.803-8.85-2.803-13.727c0-4.876,0.934-9.453,2.803-13.728c1.865-4.276,4.399-8.011,7.6-11.21
		c3.198-3.197,6.935-5.715,11.21-7.553C18.612-220.442,23.187-221.361,28.065-221.361z M28.065-162.459
		c3.229,0,6.285-0.619,9.167-1.854c2.881-1.235,5.399-2.913,7.552-5.035c2.154-2.121,3.849-4.623,5.083-7.504
		c1.237-2.881,1.854-5.969,1.854-9.263c0-3.292-0.616-6.366-1.854-9.216c-1.234-2.85-2.928-5.351-5.083-7.504
		c-2.153-2.153-4.671-3.848-7.552-5.083c-2.883-1.235-5.938-1.853-9.167-1.853c-3.294,0-6.381,0.618-9.263,1.853
		c-2.883,1.235-5.401,2.93-7.552,5.083c-2.155,2.154-3.849,4.655-5.083,7.504c-1.237,2.85-1.855,5.923-1.855,9.216
		c0,3.294,0.618,6.382,1.855,9.263c1.234,2.882,2.927,5.383,5.083,7.504c2.151,2.122,4.668,3.8,7.552,5.035
		C21.684-163.079,24.771-162.459,28.065-162.459z"/>
	<path display="inline" fill="#333333" d="M70.909-150.774v-70.492h10.355v60.136h30.306v10.356H70.909z"/>
	<path display="inline" fill="#333333" d="M172.845-156.761c-3.103,1.837-5.844,3.2-8.218,4.085
		c-2.374,0.888-4.893,1.458-7.553,1.71c-5.258,0.569-10.229,0.016-14.915-1.663c-4.688-1.677-8.81-4.133-12.369-7.362
		c-3.56-3.23-6.375-7.078-8.456-11.543c-2.077-4.466-3.116-9.229-3.116-14.298c0-4.94,0.944-9.626,2.829-14.06
		c1.884-4.433,4.531-8.297,7.933-11.591c3.401-3.292,7.432-5.81,12.086-7.553c4.657-1.741,9.801-2.422,15.438-2.042
		c2.217,0.127,4.321,0.491,6.316,1.092c1.996,0.603,3.815,1.316,5.463,2.138l-4.561,9.12c-2.089-0.95-3.862-1.552-5.32-1.806
		c-1.455-0.252-3.101-0.38-4.939-0.38c-3.294,0-6.444,0.682-9.451,2.042c-3.011,1.362-5.653,3.183-7.934,5.463
		c-2.28,2.28-4.101,4.924-5.463,7.933c-1.362,3.009-2.043,6.161-2.043,9.453c0,3.357,0.697,6.54,2.091,9.547
		c1.393,3.009,3.245,5.654,5.557,7.933c2.312,2.279,4.956,4.102,7.935,5.462c2.976,1.363,6.08,2.042,9.309,2.042
		c1.202,0,2.33-0.046,3.374-0.142c1.044-0.096,2.091-0.285,3.136-0.571c1.043-0.284,2.12-0.679,3.228-1.188
		c1.108-0.505,2.36-1.17,3.754-1.994L172.845-156.761z"/>
	<path display="inline" fill="#333333" d="M230.795-150.774l-4.085-9.596h-32.776l-4.084,9.596h-10.45l30.973-70.492l30.97,70.492
		H230.795z M198.401-170.726h23.844l-11.873-27.834L198.401-170.726z"/>
	<path display="inline" fill="#333333" d="M289.887-176.71v-44.556h10.354v70.492l-41.894-42.847v42.847h-10.356v-70.492
		L289.887-176.71z"/>
	<path display="inline" fill="#333333" d="M342.232-221.361c4.875,0,9.452,0.919,13.727,2.755c4.274,1.837,8.012,4.355,11.211,7.553
		c3.198,3.2,5.715,6.935,7.554,11.21c1.834,4.274,2.754,8.851,2.754,13.728c0,4.877-0.92,9.452-2.754,13.727
		c-1.839,4.276-4.355,8.014-7.554,11.211c-3.199,3.199-6.937,5.716-11.211,7.553c-4.274,1.837-8.852,2.755-13.727,2.755
		c-4.877,0-9.454-0.918-13.729-2.755c-4.274-1.837-8.012-4.354-11.21-7.553c-3.198-3.197-5.731-6.935-7.601-11.211
		c-1.868-4.275-2.802-8.85-2.802-13.727c0-4.876,0.934-9.453,2.802-13.728c1.869-4.276,4.402-8.011,7.601-11.21
		c3.198-3.197,6.936-5.715,11.21-7.553C332.778-220.442,337.355-221.361,342.232-221.361z M342.232-162.459
		c3.229,0,6.285-0.619,9.166-1.854c2.882-1.235,5.399-2.913,7.555-5.035c2.151-2.121,3.846-4.623,5.081-7.504
		c1.235-2.881,1.853-5.969,1.853-9.263c0-3.292-0.617-6.366-1.853-9.216c-1.235-2.85-2.93-5.351-5.081-7.504
		c-2.155-2.153-4.673-3.848-7.555-5.083c-2.881-1.235-5.937-1.853-9.166-1.853c-3.295,0-6.384,0.618-9.263,1.853
		c-2.886,1.235-5.4,2.93-7.555,5.083c-2.153,2.154-3.846,4.655-5.082,7.504c-1.234,2.85-1.851,5.923-1.851,9.216
		c0,3.294,0.616,6.382,1.851,9.263c1.236,2.882,2.929,5.383,5.082,7.504c2.154,2.122,4.669,3.8,7.555,5.035
		C335.849-163.079,338.938-162.459,342.232-162.459z"/>
</g>
</svg>
