<?xml version="1.0" encoding="utf-8"?>
<!-- Generator: Adobe Illustrator 16.0.0, SVG Export Plug-In . SVG Version: 6.00 Build 0)  -->
<!DOCTYPE svg PUBLIC "-//W3C//DTD SVG 1.1//EN" "http://www.w3.org/Graphics/SVG/1.1/DTD/svg11.dtd">
<svg version="1.1" id="Layer_1" xmlns="http://www.w3.org/2000/svg" xmlns:xlink="http://www.w3.org/1999/xlink" x="0px" y="0px"
	 width="218.728px" height="46.971px" viewBox="0 0 218.728 46.971" enable-background="new 0 0 218.728 46.971"
	 xml:space="preserve">
<g>
	<polygon fill="#F7F7F7" points="86.325,20.112 82.423,22.098 85.577,23.665 46.732,42.967 8.007,23.665 10.863,22.101 
		6.977,20.122 0,23.665 46.732,46.971 93.584,23.665 	"/>
	<polygon fill="#F7F7F7" points="76.481,15.019 72.658,16.966 76.029,18.652 46.732,33.299 17.436,18.652 20.726,17.066 
		16.938,15.137 9.736,18.734 46.732,37.303 83.804,18.725 	"/>
	<g>
		<path fill="#F7F7F7" d="M46.732,17.789l17.675-8.861L46.732,0l-17.6,8.913L46.732,17.789z M56.515,8.894l-3.223,1.612l-6.56,3.279
			l-6.559-3.279L36.95,8.894l9.782-4.891L56.515,8.894z"/>
		<polygon fill="#F7F7F7" points="66.929,10.195 63.058,12.166 65.884,13.579 46.732,23.155 27.581,13.579 30.339,12.14 
			26.492,10.182 19.816,13.63 46.732,27.158 69.887,15.581 73.721,13.632 		"/>
	</g>
</g>
<g>
	<path fill="#F7F7F7" d="M113.886,33.11l-7.321-16.663h3.009l4.312,9.837l4.312-9.837h3.009L113.886,33.11z"/>
	<path fill="#F7F7F7" d="M131.132,16.424c1.153,0,2.235,0.217,3.245,0.651c1.011,0.434,1.894,1.029,2.65,1.785
		c0.755,0.756,1.351,1.64,1.786,2.65c0.434,1.011,0.65,2.093,0.65,3.246c0,1.152-0.217,2.234-0.65,3.244
		c-0.436,1.011-1.031,1.895-1.786,2.65c-0.757,0.756-1.64,1.352-2.65,1.785c-1.01,0.435-2.092,0.651-3.245,0.651
		c-1.152,0-2.234-0.217-3.244-0.651c-1.012-0.434-1.895-1.029-2.65-1.785s-1.355-1.64-1.797-2.65
		c-0.441-1.01-0.662-2.092-0.662-3.244c0-1.153,0.221-2.235,0.662-3.246c0.441-1.01,1.041-1.894,1.797-2.65
		c0.756-0.756,1.639-1.351,2.65-1.785C128.897,16.642,129.979,16.424,131.132,16.424z M131.132,30.348
		c0.764,0,1.486-0.146,2.168-0.438c0.681-0.292,1.275-0.688,1.785-1.19c0.509-0.501,0.909-1.092,1.201-1.773
		c0.293-0.682,0.438-1.411,0.438-2.189c0-0.779-0.145-1.505-0.438-2.179c-0.292-0.674-0.692-1.265-1.201-1.774
		c-0.51-0.509-1.104-0.91-1.785-1.202c-0.682-0.292-1.404-0.438-2.168-0.438c-0.778,0-1.508,0.146-2.189,0.438
		s-1.276,0.693-1.785,1.202s-0.909,1.1-1.201,1.774s-0.438,1.4-0.438,2.179c0,0.778,0.146,1.508,0.438,2.189
		s0.692,1.272,1.201,1.773c0.509,0.502,1.104,0.898,1.785,1.19S130.354,30.348,131.132,30.348z"/>
	<path fill="#F7F7F7" d="M142.26,33.11V16.447h2.448v14.216h7.164v2.447H142.26z"/>
	<path fill="#F7F7F7" d="M167.356,31.696c-0.734,0.434-1.382,0.756-1.943,0.965c-0.561,0.21-1.156,0.345-1.785,0.404
		c-1.242,0.135-2.418,0.004-3.525-0.393c-1.108-0.396-2.083-0.977-2.924-1.74c-0.842-0.764-1.508-1.674-1.999-2.729
		c-0.491-1.057-0.736-2.183-0.736-3.381c0-1.167,0.223-2.275,0.669-3.323c0.445-1.048,1.07-1.961,1.875-2.74
		c0.804-0.778,1.757-1.373,2.857-1.785c1.1-0.412,2.316-0.573,3.648-0.483c0.524,0.03,1.021,0.116,1.494,0.258
		c0.471,0.143,0.901,0.311,1.291,0.505l-1.078,2.156c-0.494-0.224-0.913-0.367-1.258-0.427c-0.344-0.06-0.733-0.09-1.168-0.09
		c-0.778,0-1.523,0.161-2.234,0.483s-1.336,0.752-1.875,1.292c-0.539,0.539-0.969,1.164-1.291,1.875
		c-0.322,0.711-0.482,1.456-0.482,2.234c0,0.795,0.164,1.547,0.494,2.258c0.328,0.711,0.766,1.336,1.312,1.875
		s1.172,0.969,1.876,1.291c0.703,0.322,1.437,0.482,2.2,0.482c0.284,0,0.551-0.011,0.798-0.033s0.494-0.067,0.741-0.135
		c0.246-0.067,0.501-0.16,0.763-0.281c0.263-0.119,0.558-0.276,0.888-0.471L167.356,31.696z"/>
	<path fill="#F7F7F7" d="M182.055,33.11l-0.966-2.268h-7.748l-0.965,2.268h-2.471l7.321-16.663l7.321,16.663H182.055z
		 M174.397,28.394h5.636l-2.807-6.58L174.397,28.394z"/>
	<path fill="#F7F7F7" d="M197.022,26.979V16.447h2.448V33.11l-9.903-10.128V33.11h-2.448V16.447L197.022,26.979z"/>
	<path fill="#F7F7F7" d="M210.396,16.424c1.151,0,2.234,0.217,3.245,0.651c1.01,0.434,1.894,1.029,2.649,1.785
		c0.757,0.756,1.351,1.64,1.786,2.65c0.434,1.011,0.65,2.093,0.65,3.246c0,1.152-0.217,2.234-0.65,3.244
		c-0.436,1.011-1.029,1.895-1.786,2.65c-0.756,0.756-1.64,1.352-2.649,1.785c-1.011,0.435-2.094,0.651-3.245,0.651
		c-1.153,0-2.235-0.217-3.245-0.651c-1.011-0.434-1.895-1.029-2.65-1.785s-1.354-1.64-1.797-2.65
		c-0.441-1.01-0.662-2.092-0.662-3.244c0-1.153,0.221-2.235,0.662-3.246c0.442-1.01,1.041-1.894,1.797-2.65
		c0.756-0.756,1.64-1.351,2.65-1.785C208.161,16.642,209.243,16.424,210.396,16.424z M210.396,30.348
		c0.764,0,1.485-0.146,2.167-0.438s1.275-0.688,1.785-1.19c0.51-0.501,0.908-1.092,1.201-1.773c0.292-0.682,0.438-1.411,0.438-2.189
		c0-0.779-0.146-1.505-0.438-2.179c-0.293-0.674-0.691-1.265-1.201-1.774s-1.104-0.91-1.785-1.202s-1.403-0.438-2.167-0.438
		c-0.778,0-1.509,0.146-2.189,0.438c-0.683,0.292-1.276,0.693-1.786,1.202c-0.509,0.509-0.909,1.1-1.201,1.774
		s-0.438,1.4-0.438,2.179c0,0.778,0.146,1.508,0.438,2.189s0.692,1.272,1.201,1.773c0.51,0.502,1.104,0.898,1.786,1.19
		C208.888,30.202,209.618,30.348,210.396,30.348z"/>
</g>
</svg>
