<?xml version="1.0" encoding="utf-8"?>
<!-- Generator: Adobe Illustrator 16.0.0, SVG Export Plug-In . SVG Version: 6.00 Build 0)  -->
<!DOCTYPE svg PUBLIC "-//W3C//DTD SVG 1.1//EN" "http://www.w3.org/Graphics/SVG/1.1/DTD/svg11.dtd">
<svg version="1.1" id="Layer_1" xmlns="http://www.w3.org/2000/svg" xmlns:xlink="http://www.w3.org/1999/xlink" x="0px" y="0px"
	 width="381.158px" height="191.309px" viewBox="0 0 381.158 191.309" style="enable-background:new 0 0 381.158 191.309;"
	 xml:space="preserve">
<style type="text/css">
<![CDATA[
	.st0{opacity:0.95;}
	.st1{enable-background:new    ;}
	.st2{fill:#FFFFFF;}
	.st3{fill:#66BF77;}
]]>
</style>
<g>
	<polygon class="st2" points="190.336,0 0,96.384 190.336,191.308 381.158,96.384 	"/>
	<g class="st0">
		<g class="st1">
			<path class="st3" d="M103.49,86.984l-7.659,24.199h-0.844l-7.676-22.34c-0.08-0.229-0.144-0.459-0.189-0.688
				c-0.046,0.229-0.109,0.459-0.189,0.688l-7.71,22.34h-0.826l-7.659-24.199h0.774c0.195,0,0.321,0.098,0.379,0.293l6.678,21.497
				c0.115,0.39,0.212,0.803,0.292,1.239c0.046-0.229,0.095-0.448,0.146-0.654c0.052-0.207,0.106-0.401,0.164-0.585l7.453-21.497
				c0.057-0.195,0.195-0.293,0.413-0.293h0.224c0.195,0,0.321,0.098,0.378,0.293l7.453,21.497c0.115,0.355,0.218,0.763,0.31,1.222
				c0.046-0.229,0.092-0.444,0.138-0.646c0.046-0.2,0.098-0.393,0.155-0.576l6.678-21.497c0.057-0.195,0.195-0.293,0.413-0.293
				H103.49z"/>
			<path class="st3" d="M126.467,86.984v24.199h-0.964V99.291h-16.265v11.893h-0.947V86.984h0.947v11.549h16.265V86.984H126.467z"/>
			<path class="st3" d="M151.87,111.183h-0.74c-0.172,0-0.298-0.098-0.378-0.293l-3.15-7.658h-12.427l-3.149,7.658
				c-0.058,0.195-0.189,0.293-0.396,0.293h-0.706l10.017-24.199h0.912L151.87,111.183z M147.292,102.509l-5.542-13.477
				c-0.126-0.31-0.247-0.653-0.361-1.032c-0.103,0.379-0.224,0.723-0.361,1.032l-5.542,13.477H147.292z"/>
			<path class="st3" d="M169.323,87.81h-8.864v23.373h-0.947V87.81h-8.916v-0.826h18.726V87.81z"/>
			<path class="st3" d="M211.249,86.984l-7.658,24.199h-0.844l-7.677-22.34c-0.08-0.229-0.144-0.459-0.188-0.688
				c-0.047,0.229-0.109,0.459-0.189,0.688l-7.711,22.34h-0.826l-7.659-24.199h0.774c0.195,0,0.321,0.098,0.379,0.293l6.678,21.497
				c0.115,0.39,0.212,0.803,0.292,1.239c0.046-0.229,0.095-0.448,0.146-0.654c0.052-0.207,0.106-0.401,0.164-0.585l7.452-21.497
				c0.058-0.195,0.195-0.293,0.413-0.293h0.224c0.195,0,0.321,0.098,0.379,0.293l7.453,21.497c0.114,0.355,0.217,0.763,0.309,1.222
				c0.047-0.229,0.092-0.444,0.139-0.646c0.045-0.2,0.098-0.393,0.154-0.576l6.678-21.497c0.058-0.195,0.195-0.293,0.414-0.293
				H211.249z"/>
			<path class="st3" d="M230.37,110.375l-0.033,0.809h-14.286V86.984h14.286v0.809h-13.34v10.723h11.24v0.792h-11.24v11.067H230.37z
				"/>
			<path class="st3" d="M265.74,99.084c0,1.894-0.275,3.589-0.826,5.086s-1.325,2.766-2.323,3.804
				c-0.999,1.039-2.192,1.833-3.58,2.384c-1.389,0.551-2.921,0.826-4.595,0.826h-8.727V86.984h8.727
				c1.674,0,3.206,0.275,4.595,0.826c1.388,0.551,2.581,1.346,3.58,2.384c0.998,1.039,1.772,2.307,2.323,3.804
				S265.74,97.19,265.74,99.084z M264.741,99.084c0-1.801-0.25-3.405-0.748-4.811c-0.5-1.405-1.205-2.59-2.117-3.554
				s-2.003-1.698-3.271-2.203c-1.269-0.505-2.665-0.758-4.19-0.758h-7.78v22.65h7.78c1.525,0,2.922-0.252,4.19-0.758
				c1.268-0.504,2.358-1.239,3.271-2.202c0.912-0.964,1.617-2.149,2.117-3.555C264.491,102.489,264.741,100.885,264.741,99.084z"/>
			<path class="st3" d="M292.865,99.084c0,1.894-0.275,3.601-0.826,5.12c-0.551,1.521-1.325,2.817-2.323,3.89
				c-0.999,1.073-2.192,1.896-3.58,2.471c-1.388,0.573-2.926,0.86-4.612,0.86c-1.664,0-3.19-0.287-4.578-0.86
				c-1.389-0.574-2.582-1.397-3.58-2.471c-0.998-1.072-1.773-2.369-2.324-3.89c-0.551-1.52-0.826-3.227-0.826-5.12
				c0-1.882,0.275-3.586,0.826-5.111c0.551-1.526,1.326-2.826,2.324-3.898c0.998-1.073,2.191-1.902,3.58-2.487
				c1.388-0.585,2.914-0.878,4.578-0.878c1.687,0,3.225,0.29,4.612,0.869c1.388,0.58,2.581,1.406,3.58,2.479
				c0.998,1.073,1.772,2.372,2.323,3.898S292.865,97.19,292.865,99.084z M291.866,99.084c0-1.801-0.25-3.416-0.748-4.845
				c-0.5-1.429-1.205-2.643-2.117-3.641s-2.003-1.761-3.271-2.289c-1.269-0.527-2.671-0.792-4.208-0.792
				c-1.515,0-2.906,0.265-4.174,0.792c-1.268,0.528-2.357,1.291-3.271,2.289c-0.912,0.998-1.624,2.212-2.134,3.641
				c-0.511,1.429-0.766,3.044-0.766,4.845c0,1.802,0.255,3.417,0.766,4.845c0.51,1.429,1.222,2.637,2.134,3.623
				c0.913,0.987,2.003,1.744,3.271,2.272c1.268,0.527,2.659,0.791,4.174,0.791c1.537,0,2.939-0.264,4.208-0.791
				c1.268-0.528,2.358-1.285,3.271-2.272c0.912-0.986,1.617-2.194,2.117-3.623C291.616,102.501,291.866,100.885,291.866,99.084z"/>
		</g>
	</g>
</g>
</svg>
